<?xml version="1.0" encoding="utf-8"?>
<!-- Generator: Adobe Illustrator 18.0.0, SVG Export Plug-In . SVG Version: 6.00 Build 0)  -->
<!DOCTYPE svg PUBLIC "-//W3C//DTD SVG 1.1//EN" "http://www.w3.org/Graphics/SVG/1.1/DTD/svg11.dtd" [
	<!ENTITY st0 "fill:#FFFFFF;">
	<!ENTITY st1 "fill:#4D4D4D;">
	<!ENTITY st2 "fill:#FFFFFF;stroke:#0090D1;stroke-width:8;stroke-linecap:round;stroke-linejoin:round;stroke-miterlimit:10;">
	<!ENTITY st3 "fill:#69D7E2;">
	<!ENTITY st4 "fill:#FFCC00;">
	<!ENTITY st5 "fill:#FFCC00;stroke:#FFFF99;stroke-width:8;stroke-linecap:round;stroke-linejoin:round;stroke-miterlimit:10;">
	<!ENTITY st6 "fill:none;stroke:#99CC33;stroke-width:8;stroke-linejoin:round;stroke-miterlimit:10;">
	<!ENTITY st7 "fill:#F6D2A2;">
	<!ENTITY st8 "fill:#231F20;">
	<!ENTITY st9 "fill:none;stroke:#0090D1;stroke-width:8;stroke-linecap:round;stroke-linejoin:round;stroke-miterlimit:10;">
	<!ENTITY st10 "opacity:0.5;fill:#69D7E2;">
	<!ENTITY st11 "fill:#FFFFFF;stroke:#4D4D4D;stroke-width:4;stroke-miterlimit:10;">
	<!ENTITY st12 "fill:#0090D1;">
	<!ENTITY st13 "fill:#5EE4EC;">
	<!ENTITY st14 "fill:#42D2DE;">
	<!ENTITY st15 "fill:none;">
	<!ENTITY st16 "fill:#FFFF99;">
	<!ENTITY st17 "fill:#B4CA00;">
	<!ENTITY st18 "fill:#B4EBB0;">
	<!ENTITY st19 "fill:#99CC33;">
	<!ENTITY st20 "fill:#64CA5D;">
]>
<svg version="1.1" id="Layer_2" xmlns="http://www.w3.org/2000/svg" xmlns:xlink="http://www.w3.org/1999/xlink" x="0px" y="0px"
	 viewBox="0 0 1627.1 2187.3" style="enable-background:new 0 0 1627.1 2187.3;" xml:space="preserve">
<g>
	<g>
		<path style="&st0;" d="M1595.4,848.2c19.9-102.5-17.3-206.5-92.2-276.2c0-1.2-0.2-5.1-0.3-5.8c-1.9-178.5-72.1-346-198.2-472.1
			L1240,29.4c-5.2-5.2-13.6-5.2-18.8,0L841.1,409.5c-2.5,2.5-5.9,3.9-9.5,3.9c-6.3,0-12.6-0.1-18.8-0.1c-0.1,0-7.7,0.1-7.7,0.1
			l-11.8-0.1c-110.1,0-480.1,9.7-639.8,134.1C58.6,615.5,10.7,733.2,31.3,848.2l180.9,1011.2c19.5,108.7,95.7,197.8,199.8,233.8
			c98.6,43.4,244.4,68.3,401.4,68.3s302.9-24.8,401.4-68.3c57.4-19.9,106.3-56,141.9-102.6C1418,1924.1,1476.2,1461.5,1595.4,848.2z
			"/>
		<path style="&st1;" d="M813.3,2178.9c-158.6,0-307.2-25.3-407.8-69.5c-109.5-38.2-190.1-132.8-210.5-247L14.1,851.3
			C-7.6,730,43.1,605.2,143.3,533.2c163.6-127.5,538.9-137.4,650-137.4l11.9,0.1l7.6-0.1c5.7,0,11.4,0,17.2,0.1l378.8-378.8
			c11.6-11.6,31.9-11.6,43.5,0l64.7,64.7c128.8,128.8,201,300.1,203.3,482.5c76.9,74.9,112.2,184.3,92.2,287.3
			c-38.1,196.2-69.8,375.8-97.7,534.3c-67.3,381.7-101.7,568.1-144.7,616c-38.2,49.8-89.7,87-148.9,107.6
			C1120.5,2153.6,971.9,2178.9,813.3,2178.9z M793.2,430.7c-108.2,0-473.6,9.4-629,130.4C74.3,625.7,29.1,737,48.4,845.1
			l180.9,1011.2c18.3,102,90.4,186.5,188.3,220.4l1.3,0.5c96.3,42.4,240.1,66.8,394.4,66.8s298.1-24.3,394.4-66.8l1.3-0.5
			c53.2-18.4,99.5-51.9,133.8-96.7l1-1.2c38.3-41.5,81.6-287.5,136.6-599c28-158.6,59.7-338.4,97.8-534.9
			c18.2-93.6-15.1-193.2-87-260.1l-5.4-5l-0.2-7.4c0-1-0.2-4.4-0.2-5.1l0-1c-1.8-173.9-70.4-337.2-193.1-459.9l-61.7-61.7
			L853.5,421.8c-5.7,5.7-13.6,9-21.7,9c-6.5-0.1-12.7-0.1-18.9-0.1l-7.6,0.1L793.2,430.7z"/>
	</g>
	<g>
		<path style="&st0;" d="M1385.4,651.9c-81.4-60.6-307-104.1-572.8-104.1c-2.7,0-5.5,0-8.2,0.1c-3.9,0-7.8-0.1-11.8-0.1
			c-259.8,0-480,44.6-556.1,106.3c-50.8,35.2-80.3,98-68.5,164.4l180.9,1011.2c11,61.7,55.7,110.2,113.1,128.1
			c76.9,35.6,205.3,58.9,350.7,58.9s273.7-23.3,350.7-58.9c57.4-17.8,102-66.3,113.1-128.1l180.9-1011.2
			C1469.4,750.7,1438.2,686.6,1385.4,651.9z"/>
		<path style="&st12;" d="M812.7,2051.6c-143.5,0-279-22.9-363.3-61.2c-70.2-22.7-121.8-81.8-134.8-154.6L133.7,824.6
			c-13.6-76.2,18.5-153.9,81.9-198.5c86.3-68.8,312.5-113.3,577.1-113.3l11.9,0.1l8-0.1c269.2,0,501.6,43.3,592.8,110.4
			c66.4,44.1,100.2,123,86.2,201.3l-180.9,1011.2c-13,72.8-64.6,131.8-134.8,154.6C1091.7,2028.8,956.2,2051.6,812.7,2051.6z
			 M792.7,582.7c-283.5,0-475.6,51.1-534.1,98.5c-0.7,0.6-1.4,1.1-2.1,1.6c-41.7,28.9-62.9,79.7-54,129.5l180.9,1011.2
			c8.6,47.8,42.7,86.5,89.1,100.9c1.5,0.5,2.9,1,4.3,1.7c75.3,34.9,201,55.7,336,55.7s260.6-20.8,336-55.7c1.4-0.6,2.8-1.2,4.3-1.7
			c46.4-14.4,80.5-53.1,89.1-100.9l180.9-1011.2c9.1-51.1-13.1-102.6-56.6-131.2c-0.6-0.4-1.1-0.8-1.7-1.2
			c-62.9-46.8-262.4-97.2-551.9-97.2l-8.1,0.1L792.7,582.7z"/>
	</g>
	<g>
		<path style="&st13;" d="M1368.8,800.8c-80.2-57.6-302.7-99.1-564.8-99.1c-2.7,0-5.4,0-8.1,0.1c-3.9,0-7.7-0.1-11.6-0.1
			c-256.2,0-473.4,42.5-548.5,101.2c-50.1,33.5-79.2,93.3-67.5,156.4l178.4,879.4c10.9,58.8,54.9,104.9,111.5,121.9
			c75.8,33.9,202.4,56.1,345.8,56.1s270-22.2,345.8-56.1c56.6-17,100.6-63.2,111.5-121.9l178.4-879.4
			C1451.6,894.8,1420.9,833.8,1368.8,800.8z"/>
	</g>
	<g>
		<g>
			<path style="&st0;" d="M923.8,1720.7c0.6,32.6,7,68.5,1.3,103.1c-9,16.6-25.6,18.6-40.3,25c-20.5-3.2-37.8-16.6-46.1-35.8
				c-5.1-39,1.3-76.2,3.2-115.2c0-1.3,24.3,0.6,46.1,7C906.5,1710.4,923.8,1720,923.8,1720.7L923.8,1720.7z M742.6,1723.2
				c-17.9,67.9,23.7,178.6,92.2,87.7c-5.1-38.4,0.6-75.5,2.6-113.3C838,1694.4,743.3,1718.7,742.6,1723.2L742.6,1723.2z"/>
		</g>
		<g>
			<path d="M931.5,1750.7c-1.3-19.2-1.9-26.9-1.9-36.5v-4.5l-4.5-1.3l-80.7-25v-4.5l-8.3,1.9h-0.6v0.6l-90.9,23l-3.2,0.6l-1.3,3.2
				c-14.1,33.9-10.9,85.1,7,116.5c20.5,35.8,53.8,36.5,87.7-4.5c9.6,18.5,27.4,31.3,48,34.6h1.9l1.9-0.6c2.6-1.3,5.1-1.9,9.6-3.8
				c0.6,0,0.6,0,1.3-0.6c18.6-6.4,26.2-11.5,32.6-23.7l0.6-0.6v-1.3c1.9-11.5,2.6-23.7,2.6-37.1
				C933.4,1777.6,932.7,1768.7,931.5,1750.7L931.5,1750.7z M829,1727.1c-0.6,11.5-1.3,16-1.9,22.4c-1.3,23.7-1.3,41.6,0.6,59.5
				c-30.1,38.4-53.8,38.4-69.8,9.6c-15.4-26.9-18.6-72.3-7-102.4l80.7-20.5C831,1704,830.3,1712.3,829,1727.1z M918.7,1821.8
				c-4.5,7.7-10.2,11.5-25.6,16.6c-0.6,0-0.6,0-1.3,0.6c-3.8,1.3-6.4,2.6-8.3,3.2c-17.3-3.2-32-14.7-39-30.7
				c-1.9-17.3-1.9-35.2-0.6-58.9c0.6-6.4,0.6-10.9,1.9-22.4c1.3-14.7,1.9-23.7,1.9-32l69.8,21.1c0,8.3,0.6,16,1.9,32.6
				c1.3,17.3,1.9,26.2,1.9,36.5C921.2,1800.7,920.6,1811.6,918.7,1821.8z"/>
		</g>
		<g>
			<path style="&st0;" d="M357.3,1441.8c58.9,229.2,425.7,170.3,411.6-59.5C752.2,1107,301,1160.1,357.3,1441.8"/>
		</g>
		<g>
			<path d="M775.3,1381.6c-3.8-66.6-33.3-118.4-81.9-151.1c-43.5-29.4-101.1-41-158.1-33.9c-57,7.7-109.5,33.3-144,73.6
				c-38.4,44.8-53.1,103.7-39.7,171.6l5.8-1.3l-5.8,1.3C411.7,1677.3,789.4,1620.4,775.3,1381.6z M363,1440.5
				c-12.8-64.6,1.3-119.7,37.1-161.3c32.6-37.8,81.9-62.7,136.3-69.8s108.8,3.8,149.8,32c45.4,30.7,73,78.7,76.8,142.1
				C776.6,1606.9,420,1660.7,363,1440.5L363,1440.5z"/>
		</g>
		<g>
			<ellipse cx="596.5" cy="1300.4" rx="62.1" ry="67.2"/>
		</g>
		<g>
			<ellipse style="&st0;" cx="607.6" cy="1264.6" rx="14.7" ry="17.3"/>
		</g>
		<g>
			<path style="&st0;" d="M871.7,1398.9c45.5,263.1,475.6,193.3,413.5-71.7C1229.5,1089.1,856.3,1155,871.7,1398.9"/>
		</g>
		<g>
			<path d="M1291,1325.9c-57-245.2-441-178-425.7,73.6v0.6c21.1,124.2,131.9,187.6,254.1,167.1c55.7-9.6,105.6-36.5,138.3-76.2
				C1293.5,1446.9,1306.3,1390,1291,1325.9L1291,1325.9z M1248.1,1483.4c-30.7,37.1-77.5,62.7-130.6,71.7
				c-115.9,19.2-219.6-40.3-240.1-156.8c-14.1-236.9,348.2-300.2,402-69.8C1293.6,1389.3,1282,1442.4,1248.1,1483.4z"/>
		</g>
		<g>
			<ellipse cx="1115.4" cy="1283.8" rx="60.8" ry="67.2"/>
		</g>
		<g>
			<ellipse style="&st0;" cx="1126.5" cy="1248" rx="14.1" ry="17.3"/>
		</g>
		<g>
			<g>
				<path style="&st7;" d="M755.8,1584.9c-50.6,4.5-91.5,64-65.3,111.4c34.6,62.7,112-5.8,160,0.6c55.7,1.3,101.1,58.9,145.3,10.2
					c49.3-53.8-21.1-106.3-76.8-129.3L755.8,1584.9L755.8,1584.9z"/>
			</g>
			<g>
				<path style="&st8;" d="M1002.3,1627.8c-17.3-21.8-47.4-41.6-80-55.1l-1.3-0.6h-1.3l-163.9,6.4c-57,5.1-97.9,71.1-70.4,121
					c10.9,19.2,25.6,28.8,45.5,30.1c14.7,0.6,30.1-2.6,53.8-10.9c1.9-0.6,4.5-1.3,7.7-2.6c32-10.9,44.8-14.1,57.6-12.2h0.6
					c15.4,0,28.2,4.5,52.5,14.1c26.9,10.9,35.2,14.1,48.6,15.4c18.6,1.3,34.6-5.1,49.3-21.1
					C1026,1684.8,1024.7,1655.3,1002.3,1627.8L1002.3,1627.8z M991.4,1703.3c-12.2,13.4-24.3,17.9-39,17.3
					c-11.5-0.6-19.2-3.8-44.8-14.1c-25.6-10.9-39.7-14.7-56.3-15.4c-16-1.9-29.4,1.3-63.4,12.8c-3.2,1.3-5.8,1.9-7.7,2.6
					c-46.7,16-69.1,14.7-84.5-13.4c-23-41.6,12.2-97.9,60.2-102.4l162-6.4c30.7,12.8,58.3,31.4,74.3,51.2
					C1011.3,1658.5,1011.9,1681.6,991.4,1703.3L991.4,1703.3z"/>
			</g>
			<g>
				<path d="M931.9,1557.4c-19.8-73-186.3-62.1-182.4,25C757.8,1647,951.1,1629.7,931.9,1557.4z"/>
			</g>
		</g>
	</g>
	<g>
		<path style="&st12;" d="M812.7,2051.6c-143.5,0-279-22.9-363.3-61.2c-70.2-22.7-121.8-81.8-134.8-154.6L133.7,824.6
			c-3.4-19,9.2-37.1,28.2-40.5c19-3.5,37.1,9.2,40.5,28.2l180.9,1011.2c8.6,47.8,42.7,86.5,89.1,100.9c1.5,0.5,2.9,1,4.3,1.7
			c75.3,34.9,201,55.7,336,55.7s260.6-20.8,336-55.7c1.4-0.6,2.8-1.2,4.3-1.7c46.4-14.4,80.5-53.1,89.1-100.9l180.9-1011.2
			c3.4-19,21.5-31.6,40.5-28.2c19,3.4,31.6,21.5,28.2,40.5l-180.9,1011.2c-13,72.8-64.6,131.8-134.8,154.6
			C1091.7,2028.8,956.1,2051.6,812.7,2051.6z"/>
	</g>
	<g>
		<path style="&st14;" d="M804.4,701.7c-340.9,0-544.4,68.3-592.8,127.6c-0.2,1.5-0.4,3.1-0.4,4.6c0,88.6,267.8,184.8,600.1,184.8
			c311.2,0,568.8-87.4,600.1-168.1C1386.8,790.8,1160.8,701.7,804.4,701.7z"/>
	</g>
	<path style="&st4;" d="M484.7,985.6c201.2,164.3,493.3,161,691-9.5c-101.4,25.7-227.7,42.6-364.4,42.6
		C690.7,1018.8,578.6,1006,484.7,985.6z"/>
	<path style="&st4;" d="M1318,783.5c85.8-196.9,48.4-434.7-112.7-595.8L688.5,704.5c36.7-1.8,75.3-2.8,115.9-2.8
		C1038.7,701.7,1216.6,740.2,1318,783.5z"/>
	<path style="&st3;" d="M1318,783.5c-101.4-43.4-279.3-81.9-513.5-81.9c-40.6,0-79.2,1-115.9,2.8L444.1,948.9
		c13.1,13.1,26.6,25.3,40.6,36.7c93.9,20.4,206,33.1,326.6,33.1c136.7,0,263-16.9,364.4-42.6c10.1-8.7,20-17.7,29.6-27.2
		C1254.4,899.8,1291.8,843.6,1318,783.5z"/>
	<path style="&st15;" d="M880.4,677.5l-1.2,25.5c9.5,0.3,18.8,0.8,28,1.2L880.4,677.5z"/>
	<path style="&st16;" d="M1177.6,974.5c6.7,6.2,15.1,9.3,23.6,9.3c8.9,0,17.9-3.4,24.7-10.2c13.2-13.2,13.5-34.2,1.2-47.9
		c-7,7.9-14.2,15.7-21.8,23.2C1196.3,957.9,1187,966.3,1177.6,974.5z"/>
	<path style="&st16;" d="M794,1018.5l-4.2,86.2c-0.9,19.3,13.9,35.6,33.2,36.6c0.6,0,1.2,0,1.7,0c18.5,0,33.9-14.5,34.8-33.2
		l4.4-90.2c-17.3,0.5-34.9,0.8-52.6,0.8C805.5,1018.8,799.8,1018.6,794,1018.5z"/>
	<path style="&st16;" d="M1361.1,535.5l-513.5,26.7c-0.6,0-1.2,0.2-1.9,0.3c-0.8,0.1-1.5,0.1-2.3,0.2c-0.6,0.1-1.2,0.3-1.8,0.4
		c-1,0.2-1.9,0.5-2.8,0.8c-0.7,0.2-1.4,0.4-2,0.6c-0.5,0.2-1.1,0.5-1.6,0.7c-0.9,0.4-1.7,0.8-2.6,1.3c-0.6,0.4-1.3,0.7-1.9,1.1
		c-0.5,0.3-0.9,0.6-1.4,1c-0.7,0.5-1.4,1.1-2.1,1.7c-0.7,0.5-1.3,1.1-1.9,1.7c-0.2,0.2-0.4,0.3-0.6,0.5c-0.2,0.2-0.4,0.5-0.6,0.7
		c-0.6,0.6-1.1,1.2-1.6,1.8c-0.6,0.7-1.2,1.5-1.8,2.2c-0.3,0.5-0.6,0.9-0.9,1.4c-0.4,0.6-0.7,1.3-1.1,1.9c-0.5,0.8-0.9,1.7-1.3,2.6
		c-0.2,0.5-0.5,1-0.7,1.6c-0.3,0.7-0.5,1.5-0.7,2.2c-0.3,0.9-0.5,1.7-0.7,2.6c-0.1,0.6-0.3,1.1-0.4,1.7c-0.1,0.8-0.2,1.7-0.3,2.5
		c-0.1,0.6-0.2,1.1-0.3,1.7l-5.2,106.3c23.9,0.1,47.1,0.5,69.8,1.4l1.2-25.5l26.8,26.8c37.5,1.9,73.4,4.7,107.2,8.5l-84.9-84.9
		l435.2-22.7c19.3-1,34.1-17.4,33.1-36.7C1396.8,549.3,1380.4,534.4,1361.1,535.5z"/>
	<path style="&st17;" d="M804.5,701.7c-40.6,0-79.2,1-115.9,2.8L444.1,948.9c13.1,13.1,26.6,25.3,40.6,36.7
		c89.4,19.4,195.3,31.7,309.3,32.9l15.4-316.8C807.7,701.7,806.1,701.7,804.5,701.7z"/>
	<path style="&st17;" d="M1227,925.7c38.5-43.3,68.8-91.4,91-142.1c-68.4-29.3-171.8-56.2-303.6-70.7l211.4,211.4
		C1226.3,924.7,1226.6,925.2,1227,925.7z"/>
	<path style="&st17;" d="M907.2,704.3c-9.2-0.5-18.5-0.9-28-1.2l-15.3,314.8c116.4-3.7,223.6-19.4,311.8-41.8
		c0.6-0.5,1.2-1.1,1.9-1.6c-0.4-0.3-0.8-0.6-1.1-0.9L907.2,704.3z"/>
	<path style="&st18;" d="M809.3,701.7L794,1018.5c5.8,0.1,11.5,0.2,17.4,0.2c17.7,0,35.2-0.3,52.6-0.8l15.3-314.8
		C856.5,702.3,833.2,701.8,809.3,701.7z"/>
	<path style="&st18;" d="M1176.5,973.6c0.3,0.3,0.7,0.6,1.1,0.9c9.4-8.2,18.7-16.6,27.7-25.6c7.6-7.6,14.7-15.3,21.8-23.2
		c-0.4-0.5-0.7-1-1.2-1.4l-211.4-211.4c-33.9-3.7-69.7-6.6-107.2-8.5L1176.5,973.6z"/>
	<path style="&st19;" d="M824.7,1071.4c-89.3,0-178.5-23.6-257.6-70.7c-52.6-8-101.2-18.4-144.4-30.4l-3.3,3.3
		c111.7,111.7,258.5,167.6,405.3,167.6c146.8,0,293.5-55.9,405.3-167.6c6.1-6.1,12-12.3,17.7-18.6c-44.7,15.2-96.9,28.5-154.6,39.1
		C1011.4,1045.5,918.1,1071.4,824.7,1071.4z"/>
	<path style="&st19;" d="M1230,163l-49.4,49.4c150.7,150.7,185.5,373.9,104.8,558.3c24.8,9,46.2,18.3,64.1,27.7
		C1441.2,588.5,1401.5,334.5,1230,163z"/>
	<path style="&st20;" d="M1285.4,770.7c-24.4,55.7-59.2,107.9-104.8,153.5c-27,27-56.5,50.2-87.5,69.8
		c57.7-10.5,109.9-23.9,154.6-39.1c43.4-47.4,77.2-100.4,101.8-156.5C1331.6,789.1,1310.2,779.7,1285.4,770.7z"/>
	<path style="&st20;" d="M468.8,924.2l-46.1,46.1c43.3,12.1,91.8,22.4,144.4,30.4C532,979.9,498.9,954.4,468.8,924.2z"/>
	<g>
		<path style="&st12;" d="M812.7,890.5c-308.3,0-640.2-59.1-640.2-188.8c0-19.3,15.6-34.9,34.9-34.9s34.9,15.6,34.9,34.9
			c0,35.6,194,118.9,570.3,118.9S1383,737.3,1383,701.7c0-19.3,15.6-34.9,34.9-34.9s34.9,15.6,34.9,34.9
			C1452.8,831.4,1121,890.5,812.7,890.5z"/>
	</g>
</g>
</svg>
