<?xml version="1.0" encoding="utf-8"?>
<!-- Generator: Adobe Illustrator 18.0.0, SVG Export Plug-In . SVG Version: 6.00 Build 0)  -->
<!DOCTYPE svg PUBLIC "-//W3C//DTD SVG 1.1//EN" "http://www.w3.org/Graphics/SVG/1.1/DTD/svg11.dtd" [
	<!ENTITY st0 "fill:#FFFFFF;">
	<!ENTITY st1 "fill:#4D4D4D;">
	<!ENTITY st2 "fill:#0090D1;">
	<!ENTITY st3 "fill:#69D7E2;">
	<!ENTITY st4 "fill:#FFCC00;">
	<!ENTITY st5 "fill:none;">
	<!ENTITY st6 "fill:#FFFF99;">
	<!ENTITY st7 "fill:#99CC33;">
	<!ENTITY st8 "fill:#F6D2A2;">
	<!ENTITY st9 "fill:#231F20;">
	<!ENTITY st10 "opacity:0.5;">
	<!ENTITY st11 "fill:#FFFFFF;stroke:#0090D1;stroke-width:8;stroke-linecap:round;stroke-linejoin:round;stroke-miterlimit:10;">
	<!ENTITY st12 "fill:#FFCC00;stroke:#FFFF99;stroke-width:8;stroke-linecap:round;stroke-linejoin:round;stroke-miterlimit:10;">
	<!ENTITY st13 "fill:none;stroke:#99CC33;stroke-width:8;stroke-linejoin:round;stroke-miterlimit:10;">
	<!ENTITY st14 "fill:none;stroke:#0090D1;stroke-width:8;stroke-linecap:round;stroke-linejoin:round;stroke-miterlimit:10;">
	<!ENTITY st15 "opacity:0.5;fill:#69D7E2;">
	<!ENTITY st16 "fill:#FFFFFF;stroke:#4D4D4D;stroke-width:4;stroke-miterlimit:10;">
]>
<svg version="1.1" id="Layer_2" xmlns="http://www.w3.org/2000/svg" xmlns:xlink="http://www.w3.org/1999/xlink" x="0px" y="0px"
	 viewBox="0 0 512 512" style="enable-background:new 0 0 512 512;" xml:space="preserve">
<g>
	<g>
		<path style="&st0;" d="M437.7,198.9c4.6-23.8-4-48-21.4-64.2c0-0.3-0.1-1.2-0.1-1.4c-0.4-41.5-16.8-80.4-46.1-109.7l-15-15
			c-1.2-1.2-3.2-1.2-4.4,0L262.4,97c-0.6,0.6-1.4,0.9-2.2,0.9c-1.5,0-2.9,0-4.4,0c0,0-1.8,0-1.8,0l-2.7,0
			c-25.6,0-111.6,2.3-148.7,31.2c-22.1,15.8-33.2,43.2-28.4,69.9l42,235c4.5,25.3,22.3,46,46.4,54.3c22.9,10.1,56.8,15.9,93.3,15.9
			s70.4-5.8,93.3-15.9c13.3-4.6,24.7-13,33-23.8C396.5,449,410,341.5,437.7,198.9z"/>
		<path style="&st1;" d="M255.9,508.3c-36.9,0-71.4-5.9-94.8-16.1c-25.4-8.9-44.2-30.9-48.9-57.4l-42-235c-5-28.2,6.7-57.2,30-73.9
			c38-29.6,125.3-31.9,151.1-31.9l2.8,0l1.8,0c1.3,0,2.7,0,4,0l88-88c2.7-2.7,7.4-2.7,10.1,0l15,15C403,50.7,419.7,90.6,420.3,133
			c17.9,17.4,26.1,42.8,21.4,66.8c-8.9,45.6-16.2,87.4-22.7,124.2c-15.6,88.7-23.6,132-33.6,143.2c-8.9,11.6-20.9,20.2-34.6,25
			C327.3,502.4,292.8,508.3,255.9,508.3z M251.3,101.9c-25.2,0-110.1,2.2-146.2,30.3c-20.9,15-31.4,40.9-26.9,66l42,235
			c4.2,23.7,21,43.3,43.8,51.2l0.3,0.1c22.4,9.9,55.8,15.5,91.7,15.5s69.3-5.7,91.7-15.5l0.3-0.1c12.4-4.3,23.1-12.1,31.1-22.5
			l0.2-0.3c8.9-9.6,19-66.8,31.7-139.2c6.5-36.9,13.9-78.7,22.7-124.3c4.2-21.8-3.5-44.9-20.2-60.4l-1.3-1.2l0-1.7
			c0-0.2,0-1-0.1-1.2l0-0.2c-0.4-40.4-16.4-78.4-44.9-106.9l-14.3-14.3l-87.7,87.6c-1.3,1.3-3.2,2.1-5.1,2.1c-1.5,0-3,0-4.4,0
			l-1.8,0L251.3,101.9z"/>
	</g>
	<g>
		<g>
			<path style="&st0;" d="M389.1,153.3c-18.9-14.1-71.3-24.2-133.1-24.2c-0.6,0-1.3,0-1.9,0c-0.9,0-1.8,0-2.7,0
				c-60.4,0-111.6,10.4-129.3,24.7c-11.8,8.2-18.7,22.8-15.9,38.2l42,235c2.6,14.4,12.9,25.6,26.3,29.8
				c17.9,8.3,47.7,13.7,81.5,13.7s63.6-5.4,81.5-13.7c13.3-4.1,23.7-15.4,26.3-29.8l42-235C408.6,176.3,401.3,161.4,389.1,153.3z"/>
			<path style="&st2;" d="M255.9,478.7c-33.4,0-64.9-5.3-84.4-14.2c-16.3-5.3-28.3-19-31.3-35.9l-42-235c-3.2-17.7,4.3-35.8,19-46.1
				c20.1-16,72.6-26.3,134.1-26.3l2.8,0l1.9,0c62.6,0,116.6,10.1,137.8,25.7c15.4,10.2,23.3,28.6,20,46.8l-42,235
				c-3,16.9-15,30.6-31.3,35.9C320.8,473.4,289.3,478.7,255.9,478.7z M251.3,137.2c-65.9,0-110.5,11.9-124.2,22.9
				c-0.2,0.1-0.3,0.3-0.5,0.4c-9.7,6.7-14.6,18.5-12.5,30.1l42,235c2,11.1,9.9,20.1,20.7,23.5c0.3,0.1,0.7,0.2,1,0.4
				c17.5,8.1,46.7,12.9,78.1,12.9s60.6-4.8,78.1-12.9c0.3-0.2,0.7-0.3,1-0.4c10.8-3.4,18.7-12.3,20.7-23.5l42-235
				c2.1-11.9-3-23.9-13.2-30.5c-0.1-0.1-0.3-0.2-0.4-0.3c-14.6-10.9-61-22.6-128.3-22.6l-1.9,0L251.3,137.2z"/>
		</g>
		<g>
			<path style="&st3;" d="M385.2,187.9c-18.7-13.4-70.4-23-131.3-23c-0.6,0-1.2,0-1.9,0c-0.9,0-1.8,0-2.7,0
				c-59.6,0-110,9.9-127.5,23.5c-11.6,7.8-18.4,21.7-15.7,36.4l41.5,204.4c2.5,13.7,12.8,24.4,25.9,28.3c17.6,7.9,47.1,13,80.4,13
				s62.7-5.2,80.4-13c13.2-3.9,23.4-14.7,25.9-28.3l41.5-204.4C404.4,209.8,397.3,195.6,385.2,187.9z"/>
		</g>
		<g>
			<g>
				<path style="&st4;" d="M347.2,45.4c48.9,48.9,48.9,128.1,0,176.9s-128.1,48.9-176.9,0L347.2,45.4z"/>
			</g>
			<g>
				<g>
					<line style="&st5;" x1="258.7" y1="259" x2="264.5" y2="140.6"/>
					<path style="&st6;" d="M258.7,267.1c-0.1,0-0.3,0-0.4,0c-4.5-0.2-7.9-4-7.7-8.5l5.7-118.4c0.2-4.5,4-7.9,8.5-7.7
						c4.5,0.2,7.9,4,7.7,8.5l-5.7,118.4C266.6,263.7,263,267.1,258.7,267.1z"/>
				</g>
				<g>
					<line style="&st5;" x1="264.5" y1="140.6" x2="383.8" y2="134.4"/>
					<path style="&st6;" d="M264.5,148.7c-4.3,0-7.9-3.4-8.1-7.7c-0.2-4.5,3.2-8.3,7.7-8.5l119.4-6.2c4.5-0.2,8.3,3.2,8.5,7.7
						c0.2,4.5-3.2,8.3-7.7,8.5l-119.4,6.2C264.7,148.7,264.6,148.7,264.5,148.7z"/>
				</g>
				<g>
					<line style="&st5;" x1="346.2" y1="222.4" x2="264.5" y2="140.6"/>
					<path style="&st6;" d="M346.2,230.5c-2.1,0-4.2-0.8-5.7-2.4l-81.8-81.8c-3.2-3.2-3.2-8.3,0-11.5c3.2-3.2,8.3-3.2,11.5,0
						l81.8,81.8c3.2,3.2,3.2,8.3,0,11.5C350.4,229.7,348.3,230.5,346.2,230.5z"/>
				</g>
			</g>
			<g>
				<path style="&st7;" d="M258.7,267.1c-34.1,0-68.2-13-94.2-39l11.5-11.5c22.8,22.8,52.8,34.2,82.7,34.2c30,0,59.9-11.4,82.7-34.2
					c45.6-45.6,45.6-119.8,0-165.5l11.5-11.5c51.9,51.9,51.9,136.5,0,188.4C327,254.1,292.8,267.1,258.7,267.1z"/>
			</g>
		</g>
		<g>
			<path style="&st3;" d="M383.6,187.9c-18.4-13.4-69.5-23-129.6-23c-0.6,0-1.2,0-1.9,0c-0.9,0-1.8,0-2.7,0
				c-58.8,0-108.6,9.9-125.8,23.5c-11.5,7.8-18.2,21.7-15.5,36.4l40.9,204.4c2.5,13.7,12.6,24.4,25.6,28.3c17.4,7.9,46.4,13,79.3,13
				s61.9-5.2,79.3-13c13-3.9,23.1-14.7,25.6-28.3l40.9-204.4C402.6,209.8,395.6,195.6,383.6,187.9z"/>
		</g>
		<g>
			<g>
				<path style="&st0;" d="M281.6,401.7c0.1,7.6,1.6,15.9,0.3,24c-2.1,3.9-6,4.3-9.4,5.8c-4.8-0.7-8.8-3.9-10.7-8.3
					c-1.2-9.1,0.3-17.7,0.7-26.8c0-0.3,5.7,0.1,10.7,1.6C277.6,399.4,281.6,401.6,281.6,401.7L281.6,401.7z M239.5,402.3
					c-4.2,15.8,5.5,41.5,21.4,20.4c-1.2-8.9,0.1-17.6,0.6-26.3C261.7,395.6,239.7,401.3,239.5,402.3L239.5,402.3z"/>
			</g>
			<g>
				<path d="M283.4,408.7c-0.3-4.5-0.4-6.2-0.4-8.5v-1l-1-0.3l-18.7-5.8v-1l-1.9,0.4h-0.1v0.1L240,398l-0.7,0.1l-0.3,0.7
					c-3.3,7.9-2.5,19.8,1.6,27.1c4.8,8.3,12.5,8.5,20.4-1c2.2,4.3,6.4,7.3,11.2,8h0.4l0.4-0.1c0.6-0.3,1.2-0.4,2.2-0.9
					c0.1,0,0.1,0,0.3-0.1c4.3-1.5,6.1-2.7,7.6-5.5l0.1-0.1v-0.3c0.4-2.7,0.6-5.5,0.6-8.6C283.8,415,283.7,412.9,283.4,408.7
					L283.4,408.7z M259.6,403.2c-0.1,2.7-0.3,3.7-0.4,5.2c-0.3,5.5-0.3,9.7,0.1,13.8c-7,8.9-12.5,8.9-16.2,2.2
					c-3.6-6.2-4.3-16.8-1.6-23.8l18.7-4.8C260,397.9,259.9,399.8,259.6,403.2z M280.4,425.2c-1,1.8-2.4,2.7-6,3.9
					c-0.1,0-0.1,0-0.3,0.1c-0.9,0.3-1.5,0.6-1.9,0.7c-4-0.7-7.4-3.4-9.1-7.1c-0.4-4-0.4-8.2-0.1-13.7c0.1-1.5,0.1-2.5,0.4-5.2
					c0.3-3.4,0.4-5.5,0.4-7.4l16.2,4.9c0,1.9,0.1,3.7,0.4,7.6c0.3,4,0.4,6.1,0.4,8.5C281,420.3,280.9,422.9,280.4,425.2z"/>
			</g>
			<g>
				<path style="&st0;" d="M149.9,336.9c13.7,53.3,98.9,39.6,95.7-13.8C241.7,259.1,136.9,271.4,149.9,336.9"/>
			</g>
			<g>
				<path d="M247.1,322.9c-0.9-15.5-7.7-27.5-19-35.1c-10.1-6.8-23.5-9.5-36.8-7.9c-13.2,1.8-25.4,7.7-33.5,17.1
					c-8.9,10.4-12.3,24.1-9.2,39.9l1.3-0.3l-1.3,0.3C162.6,391.7,250.4,378.4,247.1,322.9z M151.3,336.6c-3-15,0.3-27.8,8.6-37.5
					c7.6-8.8,19-14.6,31.7-16.2c12.6-1.6,25.3,0.9,34.8,7.4c10.6,7.1,17,18.3,17.9,33C247.4,375.3,164.5,387.8,151.3,336.6
					L151.3,336.6z"/>
			</g>
			<g>
				<ellipse cx="205.6" cy="304" rx="14.4" ry="15.6"/>
			</g>
			<g>
				<ellipse style="&st0;" cx="208.1" cy="295.7" rx="3.4" ry="4"/>
			</g>
			<g>
				<path style="&st0;" d="M269.5,327c10.6,61.2,110.6,44.9,96.1-16.7C352.7,254.9,265.9,270.3,269.5,327"/>
			</g>
			<g>
				<path d="M367,310c-13.2-57-102.5-41.4-98.9,17.1v0.1c4.9,28.9,30.7,43.6,59.1,38.8c12.9-2.2,24.5-8.5,32.1-17.7
					C367.6,338.1,370.5,324.9,367,310L367,310z M357,346.6c-7.1,8.6-18,14.6-30.4,16.7c-26.9,4.5-51-9.4-55.8-36.5
					c-3.3-55.1,80.9-69.8,93.4-16.2C367.6,324.7,364.9,337.1,357,346.6z"/>
			</g>
			<g>
				<ellipse cx="326.2" cy="300.2" rx="14.1" ry="15.6"/>
			</g>
			<g>
				<ellipse style="&st0;" cx="328.7" cy="291.9" rx="3.3" ry="4"/>
			</g>
			<g>
				<g>
					<path style="&st8;" d="M242.6,370.2c-11.8,1-21.3,14.9-15.2,25.9c8,14.6,26-1.3,37.2,0.1c12.9,0.3,23.5,13.7,33.8,2.4
						c11.5-12.5-4.9-24.7-17.9-30.1L242.6,370.2L242.6,370.2z"/>
				</g>
				<g>
					<path style="&st9;" d="M299.9,380.2c-4-5.1-11-9.7-18.6-12.8l-0.3-0.1h-0.3l-38.1,1.5c-13.2,1.2-22.8,16.5-16.4,28.1
						c2.5,4.5,6,6.7,10.6,7c3.4,0.1,7-0.6,12.5-2.5c0.4-0.1,1-0.3,1.8-0.6c7.4-2.5,10.4-3.3,13.4-2.8h0.1c3.6,0,6.5,1,12.2,3.3
						c6.2,2.5,8.2,3.3,11.3,3.6c4.3,0.3,8-1.2,11.5-4.9C305.4,393.4,305.1,386.6,299.9,380.2L299.9,380.2z M297.3,397.7
						c-2.8,3.1-5.7,4.2-9.1,4c-2.7-0.1-4.5-0.9-10.4-3.3c-6-2.5-9.2-3.4-13.1-3.6c-3.7-0.4-6.8,0.3-14.7,3c-0.7,0.3-1.3,0.4-1.8,0.6
						c-10.9,3.7-16.1,3.4-19.6-3.1c-5.4-9.7,2.8-22.8,14-23.8l37.6-1.5c7.1,3,13.5,7.3,17.3,11.9
						C301.9,387.3,302.1,392.7,297.3,397.7L297.3,397.7z"/>
				</g>
				<g>
					<path d="M283.5,363.8c-4.6-17-43.3-14.4-42.4,5.8C243,384.6,288,380.6,283.5,363.8z"/>
				</g>
			</g>
		</g>
		<g>
			<path style="&st2;" d="M255.9,478.7c-33.4,0-64.9-5.3-84.4-14.2c-16.3-5.3-28.3-19-31.3-35.9l-42-235c-0.8-4.4,2.1-8.6,6.6-9.4
				c4.4-0.8,8.6,2.1,9.4,6.6l42,235c2,11.1,9.9,20.1,20.7,23.5c0.3,0.1,0.7,0.2,1,0.4c17.5,8.1,46.7,12.9,78.1,12.9
				s60.6-4.8,78.1-12.9c0.3-0.2,0.7-0.3,1-0.4c10.8-3.4,18.7-12.3,20.7-23.5l42-235c0.8-4.4,5-7.4,9.4-6.6c4.4,0.8,7.3,5,6.6,9.4
				l-42,235c-3,16.9-15,30.6-31.3,35.9C320.8,473.4,289.3,478.7,255.9,478.7z"/>
		</g>
		<g style="&st10;">
			<path style="&st3;" d="M254,164.9c-79.2,0-126.5,15.9-137.8,29.7c0,0.4-0.1,0.7-0.1,1.1c0,20.6,62.2,43,139.5,43
				c72.3,0,132.2-20.3,139.5-39.1C389.4,185.6,336.9,164.9,254,164.9z"/>
		</g>
		<g>
			<path style="&st2;" d="M255.9,208.8c-71.7,0-148.8-13.7-148.8-43.9c0-4.5,3.6-8.1,8.1-8.1c4.5,0,8.1,3.6,8.1,8.1
				c0,8.3,45.1,27.6,132.6,27.6s132.6-19.4,132.6-27.6c0-4.5,3.6-8.1,8.1-8.1s8.1,3.6,8.1,8.1C404.7,195,327.6,208.8,255.9,208.8z"
				/>
		</g>
	</g>
</g>
</svg>
