<?xml version="1.0" encoding="utf-8"?>
<!-- Generator: Adobe Illustrator 18.0.0, SVG Export Plug-In . SVG Version: 6.00 Build 0)  -->
<!DOCTYPE svg PUBLIC "-//W3C//DTD SVG 1.1//EN" "http://www.w3.org/Graphics/SVG/1.1/DTD/svg11.dtd" [
	<!ENTITY st0 "fill:#FFFFFF;">
	<!ENTITY st1 "fill:#4D4D4D;">
	<!ENTITY st2 "fill:#0090D1;">
	<!ENTITY st3 "fill:#69D7E2;">
	<!ENTITY st4 "fill:#FFCC00;">
	<!ENTITY st5 "fill:none;">
	<!ENTITY st6 "fill:#FFFF99;">
	<!ENTITY st7 "fill:#99CC33;">
	<!ENTITY st8 "fill:#F6D2A2;">
	<!ENTITY st9 "fill:#231F20;">
	<!ENTITY st10 "opacity:0.5;">
	<!ENTITY st11 "fill:#FFFFFF;stroke:#0090D1;stroke-width:8;stroke-linecap:round;stroke-linejoin:round;stroke-miterlimit:10;">
	<!ENTITY st12 "fill:#FFCC00;stroke:#FFFF99;stroke-width:8;stroke-linecap:round;stroke-linejoin:round;stroke-miterlimit:10;">
	<!ENTITY st13 "fill:none;stroke:#99CC33;stroke-width:8;stroke-linejoin:round;stroke-miterlimit:10;">
	<!ENTITY st14 "fill:none;stroke:#0090D1;stroke-width:8;stroke-linecap:round;stroke-linejoin:round;stroke-miterlimit:10;">
	<!ENTITY st15 "opacity:0.5;fill:#69D7E2;">
	<!ENTITY st16 "fill:#FFFFFF;stroke:#4D4D4D;stroke-width:4;stroke-miterlimit:10;">
]>
<svg version="1.1" id="Layer_2" xmlns="http://www.w3.org/2000/svg" xmlns:xlink="http://www.w3.org/1999/xlink" x="0px" y="0px"
	 viewBox="0 0 1611.5 2172.5" style="enable-background:new 0 0 1611.5 2172.5;" xml:space="preserve">
<g>
	<g>
		<path style="&st0;" d="M1584.1,841.9c19.8-102.1-17.2-205.6-91.8-275c0-1.2-0.2-5-0.3-5.8c-1.9-177.8-71.8-344.5-197.4-470.1
			l-64.4-64.4c-5.2-5.2-13.5-5.2-18.7,0L833.2,405.1c-2.5,2.5-5.9,3.9-9.4,3.9c-6.3,0-12.5-0.1-18.7-0.1c-0.1,0-7.7,0.1-7.7,0.1
			l-11.8-0.1c-109.6,0-478,9.7-637.1,133.5C54.1,610.2,6.3,727.4,26.8,841.9l180.1,1006.8c19.4,108.2,95.3,196.9,198.9,232.8
			c98.1,43.2,243.3,68,399.7,68s301.6-24.7,399.7-68c57.2-19.8,105.8-55.7,141.3-102.1C1407.6,1913.2,1465.5,1452.6,1584.1,841.9z"
			/>
		<path style="&st1;" d="M805.5,2166.9c-158,0-305.9-25.2-406.1-69.2c-109-38-189.3-132.2-209.6-245.9L9.7,844.9
			c-21.6-120.8,28.9-245,128.7-316.7C301.3,401.4,675,391.5,785.6,391.5l11.8,0.1l7.6-0.1c5.7,0,11.4,0,17.1,0.1l377.2-377.2
			c11.6-11.6,31.7-11.6,43.3,0l64.4,64.4c128.2,128.2,200.1,298.8,202.4,480.4c76.6,74.6,111.7,183.5,91.8,286
			c-37.9,195.3-69.5,374.2-97.3,532c-67,380-101.3,565.6-144.1,613.4c-38.1,49.5-89.3,86.6-148.3,107.2
			C1111.4,2141.7,963.4,2166.9,805.5,2166.9z M785.5,426.2c-107.7,0-471.6,9.4-626.3,129.9C69.7,620.4,24.7,731.2,43.9,838.8
			L224,1845.7c18.2,101.6,90,185.7,187.5,219.4l1.3,0.5c95.9,42.3,239,66.5,392.7,66.5s296.8-24.2,392.7-66.5l1.3-0.5
			c53-18.4,99.1-51.7,133.2-96.2l1-1.2c38.1-41.3,81.3-286.3,136-596.4c27.8-157.9,59.4-337,97.4-532.6
			c18.1-93.2-15.1-192.4-86.6-258.9l-5.4-5l-0.2-7.3c0-1-0.2-4.4-0.2-5l0-1c-1.8-173.1-70.1-335.8-192.3-457.9L1221,41.9
			L845.5,417.3c-5.7,5.7-13.6,9-21.6,9c-6.5-0.1-12.6-0.1-18.8-0.1l-7.6,0.1L785.5,426.2z"/>
	</g>
	<g>
		<g>
			<path style="&st0;" d="M1375.7,646.5c-81-60.3-305.6-103.7-570.3-103.7c-2.7,0-5.4,0-8.2,0.1c-3.9,0-7.8-0.1-11.7-0.1
				c-258.7,0-477.9,44.4-553.7,105.9c-50.6,35-80,97.6-68.2,163.7l180.1,1006.8c11,61.5,55.4,109.8,112.6,127.5
				c76.6,35.4,204.4,58.6,349.1,58.6s272.6-23.2,349.1-58.6c57.1-17.8,101.6-66.1,112.6-127.5l180.1-1006.8
				C1459.3,744.8,1428.3,681,1375.7,646.5z"/>
			<path style="&st2;" d="M805.5,2040.1c-142.9,0-277.8-22.8-361.7-60.9c-69.9-22.6-121.3-81.4-134.2-153.9L129.4,818.4
				c-13.6-75.9,18.4-153.3,81.5-197.6C296.9,552.3,522.1,508,785.6,508l11.9,0.1l8-0.1c268,0,499.4,43.1,590.2,109.9
				c66.1,43.9,99.8,122.4,85.8,200.5l-180.1,1006.8c-13,72.5-64.3,131.3-134.2,153.9C1083.3,2017.3,948.3,2040.1,805.5,2040.1z
				 M785.6,577.6c-282.3,0-473.6,50.9-531.8,98.1c-0.7,0.6-1.4,1.1-2.1,1.6c-41.5,28.8-62.6,79.4-53.8,129L378,1813
				c8.5,47.6,42.5,86.1,88.7,100.5c1.5,0.4,2.9,1,4.3,1.6c75,34.7,200.1,55.4,334.5,55.4s259.5-20.7,334.5-55.4
				c1.4-0.6,2.8-1.2,4.3-1.6c46.2-14.4,80.2-52.9,88.7-100.5L1413,806.2c9.1-50.9-13-102.2-56.4-130.7c-0.6-0.4-1.1-0.8-1.7-1.2
				c-62.6-46.6-261.3-96.8-549.5-96.8l-8,0.1L785.6,577.6z"/>
		</g>
		<g>
			<path style="&st3;" d="M1359.2,794.7c-79.9-57.4-301.4-98.7-562.4-98.7c-2.7,0-5.4,0-8,0c-3.9,0-7.7,0-11.6,0
				c-255.1,0-471.3,42.3-546.1,100.8c-49.9,33.3-78.9,92.9-67.2,155.8l177.6,875.6c10.8,58.5,54.7,104.5,111,121.4
				c75.5,33.7,201.6,55.8,344.3,55.8s268.8-22.1,344.3-55.8c56.3-16.9,100.2-62.9,111-121.4l177.6-875.6
				C1441.6,888.2,1411.1,827.5,1359.2,794.7z"/>
		</g>
		<g>
			<g>
				<path style="&st4;" d="M1196.4,184.3c209.3,209.3,209.3,548.6,0,757.9s-548.6,209.3-757.9,0L1196.4,184.3z"/>
			</g>
			<g>
				<g>
					<line style="&st5;" x1="817.4" y1="1099" x2="842" y2="591.9"/>
					<path style="&st6;" d="M817.4,1133.8c-0.6,0-1.1,0-1.7,0c-19.2-0.9-34-17.2-33-36.4l24.6-507.1c0.9-19.2,17.1-33.9,36.4-33
						c19.2,0.9,34,17.2,33,36.4l-24.6,507.1C851.2,1119.3,835.9,1133.8,817.4,1133.8z"/>
				</g>
				<g>
					<line style="&st5;" x1="842" y1="591.9" x2="1353.3" y2="565.3"/>
					<path style="&st6;" d="M842,626.6c-18.4,0-33.7-14.4-34.7-33c-1-19.2,13.7-35.5,32.9-36.5l511.3-26.6
						c19.2-1.1,35.5,13.7,36.5,32.9s-13.7,35.5-32.9,36.5l-511.3,26.6C843.2,626.6,842.6,626.6,842,626.6z"/>
				</g>
				<g>
					<line style="&st5;" x1="1192.3" y1="942.2" x2="842" y2="591.9"/>
					<path style="&st6;" d="M1192.3,976.9c-8.9,0-17.8-3.4-24.6-10.2L817.4,616.5c-13.6-13.6-13.6-35.6,0-49.2
						c13.6-13.6,35.6-13.6,49.2,0l350.3,350.3c13.6,13.6,13.6,35.6,0,49.2C1210.1,973.5,1201.2,976.9,1192.3,976.9z"/>
				</g>
			</g>
			<g>
				<path style="&st7;" d="M817.4,1133.6c-146.1,0-292.3-55.6-403.5-166.9l49.2-49.2c97.7,97.7,226,146.5,354.4,146.5
					c128.4,0,256.7-48.8,354.4-146.5c195.4-195.4,195.4-513.3,0-708.7l49.2-49.2c222.5,222.5,222.5,584.5,0,807.1
					C1109.7,1078,963.6,1133.6,817.4,1133.6z"/>
			</g>
		</g>
		<g>
			<path style="&st3;" d="M1352.4,794.7c-78.9-57.4-297.5-98.7-555.1-98.7c-2.7,0-5.3,0-7.9,0c-3.8,0-7.6,0-11.4,0
				c-251.8,0-465.2,42.3-539,100.8c-49.2,33.3-77.9,92.9-66.4,155.8l175.3,875.6c10.7,58.5,54,104.5,109.6,121.4
				c74.5,33.7,199,55.8,339.9,55.8s265.3-22.1,339.9-55.8c55.6-16.9,98.9-62.9,109.6-121.4L1422,952.5
				C1433.8,888.2,1403.6,827.5,1352.4,794.7z"/>
		</g>
		<g>
			<g>
				<path style="&st0;" d="M915.5,1710.6c0.6,32.5,7,68.2,1.3,102.6c-8.9,16.6-25.5,18.5-40.2,24.9c-20.4-3.2-37.6-16.6-45.9-35.7
					c-5.1-38.9,1.3-75.8,3.2-114.7c0-1.3,24.2,0.6,45.9,7C898.3,1700.4,915.5,1709.9,915.5,1710.6L915.5,1710.6z M735.1,1713.1
					c-17.9,67.6,23.6,177.8,91.8,87.3c-5.1-38.2,0.6-75.2,2.5-112.8C830.1,1684.4,735.7,1708.6,735.1,1713.1L735.1,1713.1z"/>
			</g>
			<g>
				<path d="M923.1,1740.5c-1.3-19.1-1.9-26.8-1.9-36.3v-4.5l-4.5-1.3l-80.3-24.9v-4.5l-8.3,1.9h-0.6v0.6l-90.5,22.9l-3.2,0.6
					l-1.3,3.2c-14,33.8-10.8,84.8,7,116c20.4,35.7,53.5,36.3,87.3-4.5c9.5,18.4,27.3,31.2,47.8,34.4h1.9l1.9-0.6
					c2.6-1.3,5.1-1.9,9.6-3.8c0.6,0,0.6,0,1.3-0.6c18.5-6.4,26.1-11.5,32.5-23.6l0.6-0.6v-1.3c1.9-11.5,2.5-23.6,2.5-37
					C925,1767.3,924.4,1758.4,923.1,1740.5L923.1,1740.5z M821.1,1716.9c-0.6,11.5-1.3,15.9-1.9,22.3c-1.3,23.6-1.3,41.4,0.6,59.3
					c-30,38.2-53.5,38.2-69.5,9.6c-15.3-26.8-18.5-72-7-102l80.3-20.4C823.1,1694,822.4,1702.3,821.1,1716.9z M910.4,1811.3
					c-4.5,7.6-10.2,11.5-25.5,16.6c-0.6,0-0.6,0-1.3,0.6c-3.8,1.3-6.4,2.5-8.3,3.2c-17.2-3.2-31.9-14.7-38.9-30.6
					c-1.9-17.2-1.9-35.1-0.6-58.6c0.6-6.4,0.6-10.8,1.9-22.3c1.3-14.7,1.9-23.6,1.9-31.9l69.5,21c0,8.3,0.6,15.9,1.9,32.5
					c1.3,17.2,1.9,26.1,1.9,36.3C912.9,1790.2,912.3,1801.1,910.4,1811.3z"/>
			</g>
			<g>
				<path style="&st0;" d="M351.4,1432.9c58.6,228.2,423.8,169.5,409.8-59.3C744.7,1099.5,295.3,1152.4,351.4,1432.9"/>
			</g>
			<g>
				<path d="M767.6,1373c-3.8-66.3-33.1-117.9-81.6-150.4c-43.3-29.3-100.7-40.8-157.4-33.8c-56.7,7.7-109,33.2-143.4,73.3
					c-38.2,44.6-52.9,103.2-39.5,170.8l5.7-1.3l-5.7,1.3C405.6,1667.4,781.7,1610.7,767.6,1373z M357.2,1431.6
					c-12.7-64.4,1.3-119.2,37-160.6c32.5-37.6,81.6-62.5,135.8-69.5c54.2-7,108.4,3.8,149.2,31.9c45.2,30.6,72.7,78.4,76.5,141.5
					C768.9,1597.3,413.9,1650.9,357.2,1431.6L357.2,1431.6z"/>
			</g>
			<g>
				<ellipse cx="589.6" cy="1292.1" rx="61.8" ry="66.9"/>
			</g>
			<g>
				<ellipse style="&st0;" cx="600.7" cy="1256.4" rx="14.7" ry="17.2"/>
			</g>
			<g>
				<path style="&st0;" d="M863.6,1390.2c45.3,262,473.6,192.5,411.7-71.4C1219.9,1081.7,848.3,1147.4,863.6,1390.2"/>
			</g>
			<g>
				<path d="M1281.1,1317.6c-56.7-244.1-439.1-177.2-423.8,73.3v0.6c21,123.6,131.3,186.7,253,166.4c55.4-9.6,105.2-36.3,137.7-75.8
					C1283.6,1438,1296.4,1381.3,1281.1,1317.6L1281.1,1317.6z M1238.4,1474.3c-30.6,37-77.1,62.5-130,71.4
					c-115.4,19.1-218.6-40.2-239-156.2c-14-235.8,346.7-298.9,400.3-69.5C1283.6,1380.6,1272.2,1433.6,1238.4,1474.3z"/>
			</g>
			<g>
				<ellipse cx="1106.3" cy="1275.5" rx="60.5" ry="66.9"/>
			</g>
			<g>
				<ellipse style="&st0;" cx="1117.3" cy="1239.9" rx="14" ry="17.2"/>
			</g>
			<g>
				<g>
					<path style="&st8;" d="M748.3,1575.4c-50.4,4.5-91.1,63.7-65,110.9c34.4,62.5,111.5-5.7,159.3,0.6
						c55.5,1.3,100.7,58.6,144.7,10.2c49.1-53.5-21-105.8-76.5-128.8L748.3,1575.4L748.3,1575.4z"/>
				</g>
				<g>
					<path style="&st9;" d="M993.6,1618.1c-17.2-21.7-47.2-41.4-79.7-54.8l-1.3-0.6h-1.3l-163.2,6.4c-56.7,5.1-97.5,70.7-70.1,120.5
						c10.8,19.1,25.5,28.7,45.3,30c14.7,0.6,30-2.5,53.5-10.8c1.9-0.6,4.5-1.3,7.6-2.6c31.9-10.8,44.6-14,57.4-12.1h0.6
						c15.3,0,28,4.5,52.3,14c26.8,10.8,35.1,14,48.4,15.3c18.5,1.3,34.4-5.1,49.1-21C1017.2,1674.8,1016,1645.5,993.6,1618.1
						L993.6,1618.1z M982.8,1693.3c-12.1,13.4-24.2,17.9-38.9,17.2c-11.5-0.6-19.1-3.8-44.6-14c-25.5-10.8-39.5-14.7-56.1-15.3
						c-15.9-1.9-29.3,1.3-63.1,12.7c-3.2,1.3-5.7,1.9-7.6,2.5c-46.5,15.9-68.8,14.7-84.1-13.4c-22.9-41.4,12.1-97.5,59.9-102
						l161.3-6.4c30.6,12.8,58,31.2,73.9,51C1002.6,1648.7,1003.2,1671.7,982.8,1693.3L982.8,1693.3z"/>
				</g>
				<g>
					<path d="M923.5,1548c-19.8-72.7-185.5-61.8-181.7,24.9C750.2,1637.2,942.7,1620,923.5,1548z"/>
				</g>
			</g>
		</g>
		<g>
			<path style="&st2;" d="M805.5,2040.1c-142.9,0-277.8-22.8-361.7-60.9c-69.9-22.6-121.3-81.4-134.2-153.9L129.4,818.4
				c-3.4-18.9,9.2-37,28.1-40.3c18.9-3.4,37,9.2,40.3,28.1L378,1813c8.5,47.6,42.5,86.1,88.7,100.5c1.5,0.4,2.9,1,4.3,1.6
				c75,34.7,200.1,55.4,334.5,55.4s259.5-20.7,334.5-55.4c1.4-0.6,2.8-1.2,4.3-1.6c46.2-14.4,80.2-52.9,88.7-100.5L1413,806.2
				c3.4-18.9,21.4-31.5,40.3-28.1c18.9,3.4,31.5,21.4,28.1,40.3l-180.1,1006.8c-13,72.5-64.3,131.3-134.2,153.9
				C1083.3,2017.3,948.3,2040.1,805.5,2040.1z"/>
		</g>
		<g style="&st10;">
			<path style="&st3;" d="M797.3,696c-339.5,0-542.1,68-590.2,127.1c-0.2,1.5-0.4,3.1-0.4,4.6c0,88.2,266.6,184,597.5,184
				c309.8,0,566.3-87,597.5-167.4C1377.2,784.7,1152.1,696,797.3,696z"/>
		</g>
		<g>
			<path style="&st2;" d="M805.5,884c-307,0-637.4-58.8-637.4-188c0-19.2,15.6-34.8,34.8-34.8s34.8,15.6,34.8,34.8
				c0,35.4,193.2,118.4,567.9,118.4s567.9-83,567.9-118.4c0-19.2,15.6-34.8,34.8-34.8c19.2,0,34.8,15.6,34.8,34.8
				C1442.9,825.1,1112.5,884,805.5,884z"/>
		</g>
	</g>
</g>
</svg>
