<?xml version="1.0" encoding="utf-8"?>
<!-- Generator: Adobe Illustrator 18.0.0, SVG Export Plug-In . SVG Version: 6.00 Build 0)  -->
<!DOCTYPE svg PUBLIC "-//W3C//DTD SVG 1.1//EN" "http://www.w3.org/Graphics/SVG/1.1/DTD/svg11.dtd" [
	<!ENTITY st0 "fill:#FFFFFF;">
	<!ENTITY st1 "fill:#4D4D4D;">
	<!ENTITY st2 "fill:#FFFFFF;stroke:#0090D1;stroke-width:8;stroke-linecap:round;stroke-linejoin:round;stroke-miterlimit:10;">
	<!ENTITY st3 "fill:#69D7E2;">
	<!ENTITY st4 "fill:#FFCC00;">
	<!ENTITY st5 "fill:#FFCC00;stroke:#FFFF99;stroke-width:8;stroke-linecap:round;stroke-linejoin:round;stroke-miterlimit:10;">
	<!ENTITY st6 "fill:none;stroke:#99CC33;stroke-width:8;stroke-linejoin:round;stroke-miterlimit:10;">
	<!ENTITY st7 "fill:#F6D2A2;">
	<!ENTITY st8 "fill:#231F20;">
	<!ENTITY st9 "fill:none;stroke:#0090D1;stroke-width:8;stroke-linecap:round;stroke-linejoin:round;stroke-miterlimit:10;">
	<!ENTITY st10 "opacity:0.5;fill:#69D7E2;">
	<!ENTITY st11 "fill:#FFFFFF;stroke:#4D4D4D;stroke-width:4;stroke-miterlimit:10;">
	<!ENTITY st12 "fill:#0090D1;">
	<!ENTITY st13 "fill:#5EE4EC;">
	<!ENTITY st14 "fill:#42D2DE;">
	<!ENTITY st15 "fill:none;">
	<!ENTITY st16 "fill:#FFFF99;">
	<!ENTITY st17 "fill:#B4CA00;">
	<!ENTITY st18 "fill:#B4EBB0;">
	<!ENTITY st19 "fill:#99CC33;">
	<!ENTITY st20 "fill:#64CA5D;">
]>
<svg version="1.1" id="Layer_2" xmlns="http://www.w3.org/2000/svg" xmlns:xlink="http://www.w3.org/1999/xlink" x="0px" y="0px"
	 viewBox="0 0 512 512" style="enable-background:new 0 0 512 512;" xml:space="preserve">
<g>
	<g>
		<path style="&st0;" d="M437.6,199c4.6-23.8-4-48-21.4-64.1c0-0.3-0.1-1.2-0.1-1.4c-0.4-41.5-16.7-80.4-46-109.6l-15-15
			c-1.2-1.2-3.2-1.2-4.4,0l-88.3,88.3c-0.6,0.6-1.4,0.9-2.2,0.9c-1.5,0-2.9,0-4.4,0c0,0-1.8,0-1.8,0l-2.7,0
			c-25.6,0-111.5,2.3-148.6,31.1c-22,15.8-33.2,43.2-28.4,69.9l42,234.9c4.5,25.3,22.2,45.9,46.4,54.3
			c22.9,10.1,56.8,15.9,93.2,15.9s70.3-5.8,93.2-15.9c13.3-4.6,24.7-13,33-23.8C396.4,448.9,409.9,341.4,437.6,199z"/>
		<path style="&st1;" d="M255.9,508.1c-36.8,0-71.4-5.9-94.7-16.1c-25.4-8.9-44.2-30.8-48.9-57.4l-42-234.9
			c-5-28.2,6.7-57.2,30-73.9c38-29.6,125.2-31.9,151-31.9l2.8,0l1.8,0c1.3,0,2.7,0,4,0l88-88c2.7-2.7,7.4-2.7,10.1,0l15,15
			c29.9,29.9,46.7,69.7,47.2,112.1c17.9,17.4,26.1,42.8,21.4,66.7c-8.9,45.6-16.2,87.3-22.7,124.1c-15.6,88.6-23.6,131.9-33.6,143.1
			c-8.9,11.6-20.8,20.2-34.6,25C327.3,502.2,292.8,508.1,255.9,508.1z M251.3,102c-25.1,0-110,2.2-146.1,30.3
			c-20.9,15-31.4,40.8-26.9,65.9l42,234.9c4.2,23.7,21,43.3,43.7,51.2l0.3,0.1c22.4,9.9,55.8,15.5,91.6,15.5s69.2-5.7,91.6-15.5
			l0.3-0.1c12.4-4.3,23.1-12,31.1-22.5l0.2-0.3c8.9-9.6,19-66.8,31.7-139.1c6.5-36.8,13.9-78.6,22.7-124.2
			c4.2-21.7-3.5-44.9-20.2-60.4l-1.3-1.2l0-1.7c0-0.2,0-1-0.1-1.2l0-0.2c-0.4-40.4-16.3-78.3-44.8-106.8l-14.3-14.3L265.3,100
			c-1.3,1.3-3.2,2.1-5,2.1c-1.5,0-2.9,0-4.4,0l-1.8,0L251.3,102z"/>
	</g>
	<g>
		<path style="&st0;" d="M388.8,153.4c-18.9-14.1-71.3-24.2-133-24.2c-0.6,0-1.3,0-1.9,0c-0.9,0-1.8,0-2.7,0
			c-60.3,0-111.5,10.4-129.2,24.7c-11.8,8.2-18.7,22.8-15.9,38.2l42,234.9c2.6,14.3,12.9,25.6,26.3,29.7
			c17.9,8.3,47.7,13.7,81.4,13.7s63.6-5.4,81.4-13.7c13.3-4.1,23.7-15.4,26.3-29.7l42-234.9C408.3,176.3,401.1,161.5,388.8,153.4z"
			/>
		<path style="&st12;" d="M255.8,478.5c-33.3,0-64.8-5.3-84.4-14.2c-16.3-5.3-28.3-19-31.3-35.9l-42-234.9
			c-3.2-17.7,4.3-35.8,19-46.1c20-16,72.6-26.3,134-26.3l2.8,0l1.9,0c62.5,0,116.5,10.1,137.7,25.6c15.4,10.2,23.3,28.6,20,46.8
			l-42,234.9c-3,16.9-15,30.6-31.3,35.9C320.6,473.2,289.1,478.5,255.8,478.5z M251.2,137.3c-65.8,0-110.5,11.9-124.1,22.9
			c-0.2,0.1-0.3,0.3-0.5,0.4c-9.7,6.7-14.6,18.5-12.5,30.1l42,234.9c2,11.1,9.9,20.1,20.7,23.4c0.3,0.1,0.7,0.2,1,0.4
			c17.5,8.1,46.7,12.9,78,12.9s60.5-4.8,78-12.9c0.3-0.2,0.7-0.3,1-0.4c10.8-3.3,18.7-12.3,20.7-23.4l42-234.9
			c2.1-11.9-3-23.8-13.2-30.5c-0.1-0.1-0.3-0.2-0.4-0.3c-14.6-10.9-61-22.6-128.2-22.6l-1.9,0L251.2,137.3z"/>
	</g>
	<g>
		<path style="&st13;" d="M384.9,188c-18.6-13.4-70.3-23-131.2-23c-0.6,0-1.2,0-1.9,0c-0.9,0-1.8,0-2.7,0
			c-59.5,0-109.9,9.9-127.4,23.5c-11.6,7.8-18.4,21.7-15.7,36.3L147.6,429c2.5,13.6,12.8,24.4,25.9,28.3c17.6,7.9,47,13,80.3,13
			s62.7-5.2,80.3-13c13.1-3.9,23.4-14.7,25.9-28.3l41.4-204.2C404.2,209.8,397,195.6,384.9,188z"/>
	</g>
	<g>
		<g>
			<path style="&st0;" d="M281.6,401.6c0.1,7.6,1.6,15.9,0.3,23.9c-2.1,3.9-5.9,4.3-9.4,5.8c-4.8-0.7-8.8-3.9-10.7-8.3
				c-1.2-9.1,0.3-17.7,0.7-26.8c0-0.3,5.6,0.1,10.7,1.6C277.6,399.2,281.6,401.5,281.6,401.6L281.6,401.6z M239.5,402.2
				c-4.2,15.8,5.5,41.5,21.4,20.4c-1.2-8.9,0.1-17.5,0.6-26.3C261.7,395.5,239.7,401.2,239.5,402.2L239.5,402.2z"/>
		</g>
		<g>
			<path d="M283.4,408.6c-0.3-4.5-0.4-6.2-0.4-8.5v-1l-1-0.3l-18.7-5.8v-1l-1.9,0.4h-0.1v0.1l-21.1,5.4l-0.7,0.1l-0.3,0.7
				c-3.3,7.9-2.5,19.8,1.6,27.1c4.8,8.3,12.5,8.5,20.4-1c2.2,4.3,6.4,7.3,11.1,8h0.4l0.4-0.1c0.6-0.3,1.2-0.4,2.2-0.9
				c0.1,0,0.1,0,0.3-0.1c4.3-1.5,6.1-2.7,7.6-5.5l0.1-0.1v-0.3c0.4-2.7,0.6-5.5,0.6-8.6C283.8,414.9,283.7,412.8,283.4,408.6
				L283.4,408.6z M259.6,403.1c-0.1,2.7-0.3,3.7-0.4,5.2c-0.3,5.5-0.3,9.7,0.1,13.8c-7,8.9-12.5,8.9-16.2,2.2
				c-3.6-6.2-4.3-16.8-1.6-23.8l18.7-4.8C260,397.8,259.9,399.7,259.6,403.1z M280.4,425.1c-1,1.8-2.4,2.7-5.9,3.9
				c-0.1,0-0.1,0-0.3,0.1c-0.9,0.3-1.5,0.6-1.9,0.7c-4-0.7-7.4-3.4-9.1-7.1c-0.4-4-0.4-8.2-0.1-13.7c0.1-1.5,0.1-2.5,0.4-5.2
				c0.3-3.4,0.4-5.5,0.4-7.4l16.2,4.9c0,1.9,0.1,3.7,0.4,7.6c0.3,4,0.4,6.1,0.4,8.5C281,420.2,280.9,422.7,280.4,425.1z"/>
		</g>
		<g>
			<path style="&st0;" d="M150,336.8c13.7,53.2,98.9,39.5,95.6-13.8C241.8,259.1,136.9,271.4,150,336.8"/>
		</g>
		<g>
			<path d="M247.1,322.9c-0.9-15.5-7.7-27.5-19-35.1c-10.1-6.8-23.5-9.5-36.7-7.9c-13.2,1.8-25.4,7.7-33.5,17.1
				c-8.9,10.4-12.3,24.1-9.2,39.8l1.3-0.3l-1.3,0.3C162.7,391.6,250.4,378.3,247.1,322.9z M151.4,336.6c-3-15,0.3-27.8,8.6-37.5
				c7.6-8.8,19-14.6,31.7-16.2c12.6-1.6,25.3,0.9,34.8,7.4c10.6,7.1,16.9,18.3,17.8,33C247.4,375.2,164.6,387.7,151.4,336.6
				L151.4,336.6z"/>
		</g>
		<g>
			<ellipse cx="205.6" cy="304" rx="14.4" ry="15.6"/>
		</g>
		<g>
			<ellipse style="&st0;" cx="208.2" cy="295.7" rx="3.4" ry="4"/>
		</g>
		<g>
			<path style="&st0;" d="M269.5,326.9c10.6,61.1,110.5,44.9,96-16.7C352.6,254.9,265.9,270.3,269.5,326.9"/>
		</g>
		<g>
			<path d="M366.9,309.9C353.7,253,264.4,268.6,268,327v0.1c4.9,28.8,30.6,43.6,59,38.8c12.9-2.2,24.5-8.5,32.1-17.7
				C367.5,338,370.4,324.8,366.9,309.9L366.9,309.9z M356.9,346.5c-7.1,8.6-18,14.6-30.3,16.7c-26.9,4.5-51-9.4-55.8-36.4
				c-3.3-55,80.9-69.7,93.4-16.2C367.5,324.7,364.8,337,356.9,346.5z"/>
		</g>
		<g>
			<ellipse cx="326.1" cy="300.2" rx="14.1" ry="15.6"/>
		</g>
		<g>
			<ellipse style="&st0;" cx="328.7" cy="291.8" rx="3.3" ry="4"/>
		</g>
		<g>
			<g>
				<path style="&st7;" d="M242.6,370.1c-11.7,1-21.3,14.9-15.2,25.9c8,14.6,26-1.3,37.2,0.1c12.9,0.3,23.5,13.7,33.7,2.4
					c11.4-12.5-4.9-24.7-17.8-30L242.6,370.1L242.6,370.1z"/>
			</g>
			<g>
				<path style="&st8;" d="M299.8,380.1c-4-5.1-11-9.7-18.6-12.8l-0.3-0.1h-0.3l-38.1,1.5c-13.2,1.2-22.7,16.5-16.4,28.1
					c2.5,4.5,5.9,6.7,10.6,7c3.4,0.1,7-0.6,12.5-2.5c0.4-0.1,1-0.3,1.8-0.6c7.4-2.5,10.4-3.3,13.4-2.8h0.1c3.6,0,6.5,1,12.2,3.3
					c6.2,2.5,8.2,3.3,11.3,3.6c4.3,0.3,8-1.2,11.4-4.9C305.3,393.3,305,386.5,299.8,380.1L299.8,380.1z M297.3,397.6
					c-2.8,3.1-5.6,4.2-9.1,4c-2.7-0.1-4.5-0.9-10.4-3.3c-5.9-2.5-9.2-3.4-13.1-3.6c-3.7-0.4-6.8,0.3-14.7,3
					c-0.7,0.3-1.3,0.4-1.8,0.6c-10.9,3.7-16.1,3.4-19.6-3.1c-5.4-9.7,2.8-22.7,14-23.8l37.6-1.5c7.1,3,13.5,7.3,17.2,11.9
					C301.9,387.2,302.1,392.5,297.3,397.6L297.3,397.6z"/>
			</g>
			<g>
				<path d="M283.5,363.7c-4.6-16.9-43.3-14.4-42.4,5.8C243,384.5,287.9,380.5,283.5,363.7z"/>
			</g>
		</g>
	</g>
	<g>
		<path style="&st12;" d="M255.8,478.5c-33.3,0-64.8-5.3-84.4-14.2c-16.3-5.3-28.3-19-31.3-35.9l-42-234.9c-0.8-4.4,2.1-8.6,6.6-9.4
			c4.4-0.8,8.6,2.1,9.4,6.6l42,234.9c2,11.1,9.9,20.1,20.7,23.4c0.3,0.1,0.7,0.2,1,0.4c17.5,8.1,46.7,12.9,78,12.9s60.5-4.8,78-12.9
			c0.3-0.2,0.7-0.3,1-0.4c10.8-3.3,18.7-12.3,20.7-23.4l42-234.9c0.8-4.4,5-7.4,9.4-6.6c4.4,0.8,7.3,5,6.6,9.4l-42,234.9
			c-3,16.9-15,30.6-31.3,35.9C320.6,473.2,289.1,478.5,255.8,478.5z"/>
	</g>
	<g>
		<path style="&st14;" d="M253.9,165c-79.2,0-126.4,15.9-137.7,29.6c0,0.4-0.1,0.7-0.1,1.1c0,20.6,62.2,42.9,139.4,42.9
			c72.3,0,132.1-20.3,139.4-39.1C389.1,185.7,336.6,165,253.9,165z"/>
	</g>
	<path style="&st4;" d="M179.6,230.9c46.7,38.2,114.6,37.4,160.5-2.2c-23.5,6-52.9,9.9-84.6,9.9
		C227.5,238.6,201.4,235.7,179.6,230.9z"/>
	<path style="&st4;" d="M373.2,184c19.9-45.7,11.2-101-26.2-138.4l-120,120c8.5-0.4,17.5-0.7,26.9-0.7
		C308.3,165,349.6,173.9,373.2,184z"/>
	<path style="&st3;" d="M373.2,184c-23.6-10.1-64.9-19-119.3-19c-9.4,0-18.4,0.2-26.9,0.7l-56.8,56.8c3,3,6.2,5.9,9.4,8.5
		c21.8,4.7,47.8,7.7,75.9,7.7c31.7,0,61.1-3.9,84.6-9.9c2.3-2,4.6-4.1,6.9-6.3C358.4,211,367.1,197.9,373.2,184z"/>
	<path style="&st15;" d="M271.5,159.4l-0.3,5.9c2.2,0.1,4.4,0.2,6.5,0.3L271.5,159.4z"/>
	<path style="&st16;" d="M340.5,228.3c1.5,1.4,3.5,2.2,5.5,2.2c2.1,0,4.2-0.8,5.7-2.4c3.1-3.1,3.1-7.9,0.3-11.1
		c-1.6,1.8-3.3,3.6-5.1,5.4C344.9,224.5,342.7,226.4,340.5,228.3z"/>
	<path style="&st16;" d="M251.5,238.6l-1,20c-0.2,4.5,3.2,8.3,7.7,8.5c0.1,0,0.3,0,0.4,0c4.3,0,7.9-3.4,8.1-7.7l1-21
		c-4,0.1-8.1,0.2-12.2,0.2C254.1,238.6,252.8,238.6,251.5,238.6z"/>
	<path style="&st16;" d="M383.2,126.4l-119.3,6.2c-0.1,0-0.3,0.1-0.4,0.1c-0.2,0-0.4,0-0.5,0.1c-0.1,0-0.3,0.1-0.4,0.1
		c-0.2,0.1-0.4,0.1-0.6,0.2c-0.2,0-0.3,0.1-0.5,0.1c-0.1,0-0.2,0.1-0.4,0.2c-0.2,0.1-0.4,0.2-0.6,0.3c-0.2,0.1-0.3,0.2-0.4,0.2
		c-0.1,0.1-0.2,0.1-0.3,0.2c-0.2,0.1-0.3,0.3-0.5,0.4c-0.2,0.1-0.3,0.3-0.5,0.4c0,0-0.1,0.1-0.1,0.1c0,0-0.1,0.1-0.1,0.2
		c-0.1,0.1-0.2,0.3-0.4,0.4c-0.1,0.2-0.3,0.3-0.4,0.5c-0.1,0.1-0.1,0.2-0.2,0.3c-0.1,0.1-0.2,0.3-0.2,0.4c-0.1,0.2-0.2,0.4-0.3,0.6
		c-0.1,0.1-0.1,0.2-0.2,0.4c-0.1,0.2-0.1,0.3-0.2,0.5c-0.1,0.2-0.1,0.4-0.2,0.6c0,0.1-0.1,0.3-0.1,0.4c0,0.2,0,0.4-0.1,0.6
		c0,0.1-0.1,0.3-0.1,0.4L255,165c5.6,0,10.9,0.1,16.2,0.3l0.3-5.9l6.2,6.2c8.7,0.4,17,1.1,24.9,2l-19.7-19.7l101.1-5.3
		c4.5-0.2,7.9-4,7.7-8.5C391.4,129.6,387.6,126.1,383.2,126.4z"/>
	<path style="&st17;" d="M253.9,165c-9.4,0-18.4,0.2-26.9,0.7l-56.8,56.8c3,3,6.2,5.9,9.4,8.5c20.8,4.5,45.4,7.4,71.8,7.6L255,165
		C254.6,165,254.3,165,253.9,165z"/>
	<path style="&st17;" d="M352,217c8.9-10.1,16-21.2,21.1-33c-15.9-6.8-39.9-13.1-70.5-16.4l49.1,49.1
		C351.9,216.8,351.9,216.9,352,217z"/>
	<path style="&st17;" d="M277.7,165.6c-2.1-0.1-4.3-0.2-6.5-0.3l-3.5,73.1c27-0.9,51.9-4.5,72.4-9.7c0.1-0.1,0.3-0.3,0.4-0.4
		c-0.1-0.1-0.2-0.1-0.3-0.2L277.7,165.6z"/>
	<path style="&st18;" d="M255,165l-3.6,73.6c1.3,0,2.7,0.1,4,0.1c4.1,0,8.2-0.1,12.2-0.2l3.5-73.1C266,165.1,260.6,165,255,165z"/>
	<path style="&st18;" d="M340.3,228.1c0.1,0.1,0.2,0.1,0.3,0.2c2.2-1.9,4.4-3.9,6.4-5.9c1.8-1.8,3.4-3.6,5.1-5.4
		c-0.1-0.1-0.2-0.2-0.3-0.3l-49.1-49.1c-7.9-0.9-16.2-1.5-24.9-2L340.3,228.1z"/>
	<path style="&st19;" d="M258.6,250.8c-20.7,0-41.5-5.5-59.8-16.4c-12.2-1.9-23.5-4.3-33.5-7.1l-0.8,0.8c26,26,60,38.9,94.1,38.9
		c34.1,0,68.2-13,94.1-38.9c1.4-1.4,2.8-2.9,4.1-4.3c-10.4,3.5-22.5,6.6-35.9,9.1C301.9,244.8,280.3,250.8,258.6,250.8z"/>
	<path style="&st19;" d="M352.7,39.9l-11.5,11.5c35,35,43.1,86.8,24.3,129.7c5.8,2.1,10.7,4.3,14.9,6.4
		C401.8,138.7,392.5,79.7,352.7,39.9z"/>
	<path style="&st20;" d="M365.6,181c-5.7,12.9-13.8,25.1-24.3,35.6c-6.3,6.3-13.1,11.7-20.3,16.2c13.4-2.4,25.5-5.6,35.9-9.1
		c10.1-11,17.9-23.3,23.6-36.3C376.3,185.3,371.3,183.1,365.6,181z"/>
	<path style="&st20;" d="M175.9,216.7l-10.7,10.7c10,2.8,21.3,5.2,33.5,7.1C190.6,229.6,182.9,223.7,175.9,216.7z"/>
	<g>
		<path style="&st12;" d="M255.8,208.8c-71.6,0-148.7-13.7-148.7-43.8c0-4.5,3.6-8.1,8.1-8.1s8.1,3.6,8.1,8.1
			c0,8.3,45.1,27.6,132.5,27.6s132.5-19.4,132.5-27.6c0-4.5,3.6-8.1,8.1-8.1s8.1,3.6,8.1,8.1C404.5,195.1,327.4,208.8,255.8,208.8z"
			/>
	</g>
</g>
</svg>
