<?xml version="1.0" encoding="utf-8"?>
<!-- Generator: Adobe Illustrator 18.0.0, SVG Export Plug-In . SVG Version: 6.00 Build 0)  -->
<!DOCTYPE svg PUBLIC "-//W3C//DTD SVG 1.1//EN" "http://www.w3.org/Graphics/SVG/1.1/DTD/svg11.dtd" [
	<!ENTITY st0 "fill:#FFFFFF;">
	<!ENTITY st1 "fill:#4D4D4D;">
	<!ENTITY st2 "fill:#FFFFFF;stroke:#0090D1;stroke-width:8;stroke-linecap:round;stroke-linejoin:round;stroke-miterlimit:10;">
	<!ENTITY st3 "fill:#69D7E2;">
	<!ENTITY st4 "fill:#FFCC00;">
	<!ENTITY st5 "fill:#FFCC00;stroke:#FFFF99;stroke-width:8;stroke-linecap:round;stroke-linejoin:round;stroke-miterlimit:10;">
	<!ENTITY st6 "fill:none;stroke:#99CC33;stroke-width:8;stroke-linejoin:round;stroke-miterlimit:10;">
	<!ENTITY st7 "fill:#F6D2A2;">
	<!ENTITY st8 "fill:#231F20;">
	<!ENTITY st9 "fill:none;stroke:#0090D1;stroke-width:8;stroke-linecap:round;stroke-linejoin:round;stroke-miterlimit:10;">
	<!ENTITY st10 "opacity:0.5;fill:#69D7E2;">
	<!ENTITY st11 "fill:#FFFFFF;stroke:#4D4D4D;stroke-width:4;stroke-miterlimit:10;">
	<!ENTITY st12 "fill:#0090D1;">
	<!ENTITY st13 "fill:#5EE4EC;">
	<!ENTITY st14 "fill:#42D2DE;">
	<!ENTITY st15 "fill:none;">
	<!ENTITY st16 "fill:#FFFF99;">
	<!ENTITY st17 "fill:#B4CA00;">
	<!ENTITY st18 "fill:#B4EBB0;">
	<!ENTITY st19 "fill:#99CC33;">
	<!ENTITY st20 "fill:#64CA5D;">
]>
<svg version="1.1" id="Layer_2" xmlns="http://www.w3.org/2000/svg" xmlns:xlink="http://www.w3.org/1999/xlink" x="0px" y="0px"
	 viewBox="0 0 512 512" style="enable-background:new 0 0 512 512;" xml:space="preserve">
<g>
	<g>
		<g>
			<path style="&st0;" d="M140.9,436.6c-26.4,0-51.1-4.2-67.8-11.6c-18.2-6.4-31.6-22.1-35-41.1L7.9,215.7
				c-3.6-20.2,4.8-40.9,21.5-52.9c27.2-21.2,89.6-22.9,108.1-22.9l2,0l1.3,0c1,0,1.9,0,2.9,0l63-63c1-1,2.3-1.5,3.6-1.5
				c1.4,0,2.7,0.5,3.6,1.5l10.8,10.8c21.4,21.4,33.4,49.9,33.8,80.3c12.8,12.4,18.5,30.2,15.3,47.7l-9.2,51.7c9-5,19.6-7.6,30.8-7.6
				c8.4,0,16.2,1.3,23.1,3.8c6.9-4,13.3-5.3,16.6-5.8c1.5-0.2,3.1-0.3,4.6-0.3c0.9,0,1.8,0,2.7,0.1c-0.3-2-0.4-4-0.3-6
				c0.8-16.9,14.7-30.2,31.5-30.2c8.4,0,16.6,3.5,22.4,9.6c5.6,5.8,8.6,13.7,8.4,21.8l0.4-0.1l-0.5,9.7l38.3-8.3
				c0.4-0.1,0.7-0.1,1.1-0.1c1.4,0,2.7,0.6,3.7,1.6c0.8,0.8,1.2,1.8,1.4,2.9c2.5-0.4,5.2-0.7,7.7-0.7c13.3,0,24,4,31.6,12
				c8.4,8.8,12.1,21.1,11.3,37.5l-1.7,36l3.6,1.2c2.2,0.7,3.6,2.8,3.5,5.1c-0.9,19.7-17.1,35.2-36.9,35.2H350.6
				c-2.7,8.7-10.1,24.3-30.2,35.3c-13.7,7.4-29.8,11.5-45.4,11.5c-20.4,0-36.7-7.8-44.3-21.1c-6,6.6-13.5,11.5-21.9,14.4
				C192,432.3,167.3,436.6,140.9,436.6z"/>
		</g>
		<g>
			<g>
				<path style="&st1;" d="M210.3,78.3c0.6,0,1.1,0.2,1.6,0.6l10.8,10.8c21,21,32.7,48.8,33,78.5c0,0.1,0,0.8,0,1
					c12.5,11.6,18.4,28.8,15.3,45.9l-9.5,53.1c-0.3,1.4,0.9,2.6,2.2,2.6c0.4,0,0.8-0.1,1.1-0.3c8.5-5.1,19-7.9,30.7-7.9
					c8.2,0,15.8,1.3,22.4,3.8c0.3,0.1,0.5,0.1,0.8,0.1c0.4,0,0.8-0.1,1.1-0.3c6.7-3.9,13-5.2,15.8-5.6c1.4-0.2,2.8-0.3,4.2-0.3
					c1.1,0,2.2,0.1,3.3,0.2c0.1,0,0.2,0,0.3,0c1.3,0,2.4-1.2,2.2-2.6c-0.4-2-0.5-4.1-0.4-6.2c0.7-15.4,13.3-27.5,28.6-27.5
					c7.6,0,15,3.2,20.3,8.7c5.2,5.5,8,12.9,7.6,20.4c0,1-0.2,2-0.3,3l0.5-0.1c0,0-0.1,2.5-0.3,6.8c-0.1,1.3,1,2.3,2.2,2.3
					c0.2,0,0.3,0,0.5-0.1l39.2-8.5c0.2,0,0.3-0.1,0.5-0.1c1.2,0,2.3,1,2.2,2.3c-0.1,1.3,1,2.3,2.2,2.3c0.1,0,0.3,0,0.4,0
					c2.7-0.5,5.4-0.8,8-0.8c12.5,0,22.4,3.7,29.5,11.1c7.8,8.2,11.2,19.8,10.5,35.4c0,0-1.4,29.2-1.8,36.5c0,1,0.6,1.9,1.5,2.2
					l4.1,1.4c0.9,0.3,1.6,1.2,1.5,2.2c-0.9,18.1-15.8,32.4-34,32.4h-64.8H379h-29c-1,0-1.8,0.6-2.1,1.6c-2.1,7-8.6,22.9-29,34.1
					c-13.7,7.4-29.3,11.2-44,11.2c-20.6,0-36.7-8.3-43.1-22.1c-0.2-0.5-0.4-0.9-0.6-1.4c-5.9,7.7-14.1,13.8-23.6,17.1
					c-16.4,7.2-40.7,11.4-66.8,11.4s-50.4-4.1-66.8-11.4c-17.3-6-30-20.8-33.2-38.9L10.8,215.2c-3.4-19.1,4.6-38.7,20.3-50
					c26.6-20.7,88.1-22.3,106.4-22.3l2,0c0,0,1.3,0,1.3,0c1,0,2.1,0,3.1,0c0,0,0,0,0,0c0.6,0,1.1-0.2,1.6-0.6L208.7,79
					C209.2,78.6,209.7,78.3,210.3,78.3 M210.3,72.5c-2.1,0-4.2,0.8-5.7,2.3L142.5,137c-0.6,0-1.1,0-1.7,0c0,0-1.3,0-1.3,0l-1.9,0
					c-24,0-82.6,2.3-109.9,23.5C10.1,173.1,1.3,195,5.1,216.2l30.1,168.2c3.6,20,17.7,36.6,36.8,43.3c17.1,7.5,42.2,11.8,68.9,11.8
					s51.8-4.3,68.9-11.8c7.7-2.7,14.6-6.9,20.3-12.5c8.7,12.2,24.9,19.3,44.8,19.3c16.1,0,32.7-4.2,46.8-11.9
					c19.6-10.7,27.7-25.6,31-35H379h24.2H468c21.3,0,38.8-16.7,39.8-37.9c0.2-3.6-2.1-6.9-5.5-8l-1.5-0.5l1.6-33.8
					c0.8-17.3-3.1-30.3-12.1-39.7c-8.2-8.6-19.5-12.9-33.7-12.9c-1.9,0-3.8,0.1-5.8,0.4c-0.3-0.6-0.7-1.2-1.2-1.7
					c-1.5-1.6-3.6-2.5-5.8-2.5c-0.6,0-1.1,0.1-1.7,0.2l-34.6,7.5l0.1-2.1l0.4-7.5l-0.7,0.1c-0.7-7.5-3.9-14.7-9.1-20.2
					c-6.3-6.7-15.3-10.5-24.5-10.5c-18.4,0-33.5,14.5-34.4,33c0,1-0.1,2.1,0,3.1c-1.5,0-3,0.1-4.5,0.4c-3.3,0.5-9.5,1.8-16.4,5.5
					c-6.9-2.4-14.6-3.6-22.9-3.6c-9.6,0-18.8,1.8-27,5.4l8.2-46c3.2-18.1-2.5-36.4-15.3-49.5c-0.7-30.7-13-59.4-34.6-81.1L216,74.9
					C214.5,73.4,212.4,72.5,210.3,72.5L210.3,72.5z"/>
			</g>
		</g>
	</g>
	<g>
		<g>
			<path style="&st1;" d="M332.4,293.1c-1.5-2-2.1-4.3-1.5-6.7c0.3-1.4-4.9-0.5-8.1,3.6c4.1,4.5,6.2,10.9,5.9,17.4
				c-0.7,14.7-14.2,27.5-35.9,27.5c-7.1,0-12.4-0.9-16.9-2.9c-6.6,1.8-17.5,18.6,2.7,18.6h23.5c12.5,0,33.8,0.4,29.4,25.9
				c0,0-1.4,14.7-20.9,25.3c-25.7,13.9-56.3,11.8-62.9-2.5c-5.9-12.7,4.4-26.6,15.9-32.4c-5-2.4-8.3-7.2-8-14.5
				c0,0,0.2-15.9,17.7-21.7c-9-4-13.8-13.8-13.4-23.4c0.7-14.7,14.2-27.3,35.5-27.3c11.4,0,19.9,3.1,25.5,8.1
				c5.2-7.2,13-9.8,17.1-10.3c3.3-0.5,6.9,0.5,9.1,3.1c3.1,4,2.2,9.8-1.7,13C341.3,297.5,335.5,296.9,332.4,293.1z M309.2,399.6
				c13.4-8,12.5-19.2,12.5-19.2s-0.6-9.4-14.9-9.4h-25c-2,0-8.9,0.4-15.5-2.4c-17.5,10.3-4.8,25.5-5,25.3
				C270.1,405,292.3,409.5,309.2,399.6z M295.3,282.8c-9.1,0-16,4.3-16.9,24.6c-1,20.3,6.6,24.8,14.6,24.8c8.3,0,16.3-4.5,17.3-24.8
				C311.2,287.2,303.1,282.8,295.3,282.8z"/>
		</g>
		<g>
			<path style="&st1;" d="M386.6,363.4H353l0.1-2.7c7-2.2,7.6-7.4,8-16.7l2.2-45.3c0.3-6.2-1.4-8.7-8.7-11.8l0.1-2.7l28.5-6.2
				l-3.2,65.9c-0.5,10,0.2,14.8,6.6,16.7L386.6,363.4z M362.4,252.6c0.3-6,5.2-10.9,11.2-10.9c6,0,10.8,4.9,10.5,10.9
				c-0.3,6-5.6,10.7-11.6,10.7C366.6,263.3,362.2,258.6,362.4,252.6z"/>
		</g>
		<g>
			<path style="&st1;" d="M483.8,363.4H450l0.1-2.7c7-2,7.6-7.4,8-16.7l1.8-37.1c0.5-10.5-5.3-17.7-15.8-17.7
				c-8.1,0-16.7,8.3-17.7,15.2l-1.9,39.8c-0.5,10,0.4,14.7,6.6,16.5l-0.1,2.7h-33.7l0.1-2.7c7-2,7.4-7.2,7.8-16.5l2.2-45.6
				c0.3-6.3-1.2-8.5-8.5-11.6l0.1-2.7l28.5-6.2l-0.9,19.2c4.5-10.9,18.5-19.2,29.9-19.2c14.3,0,23.6,6.3,22.5,28.2l-1.8,37.7
				c-0.5,10,0.2,15,6.6,16.7L483.8,363.4z"/>
		</g>
	</g>
	<g>
		<g>
			<path style="&st0;" d="M236.2,183.4c-13.5-10.1-51.1-17.3-95.3-17.3c-0.5,0-0.9,0-1.4,0c-0.7,0-1.3,0-2,0
				c-43.2,0-79.8,7.4-92.5,17.7c-8.5,5.9-13.4,16.3-11.4,27.3l30.1,168.2c1.8,10.3,9.3,18.3,18.8,21.3c12.8,5.9,34.1,9.8,58.3,9.8
				s45.5-3.9,58.3-9.8c9.5-3,17-11,18.8-21.3l30.1-168.2C250.1,199.8,244.9,189.2,236.2,183.4z"/>
			<path style="&st12;" d="M140.9,416.2c-23.9,0-46.4-3.8-60.4-10.2c-11.7-3.8-20.3-13.6-22.4-25.7L27.9,212.1
				c-2.3-12.7,3.1-25.6,13.6-33c14.4-11.5,52-18.8,96-18.8l2,0l1.3,0c44.8,0,83.4,7.2,98.6,18.4c11,7.3,16.7,20.5,14.3,33.5
				l-30.1,168.2c-2.2,12.1-10.7,21.9-22.4,25.7C187.3,412.4,164.8,416.2,140.9,416.2z M137.6,171.9c-47.2,0-79.1,8.5-88.9,16.4
				c-0.1,0.1-0.2,0.2-0.4,0.3c-6.9,4.8-10.5,13.3-9,21.5l30.1,168.2c1.4,8,7.1,14.4,14.8,16.8c0.2,0.1,0.5,0.2,0.7,0.3
				c12.5,5.8,33.4,9.3,55.9,9.3s43.4-3.5,55.9-9.3c0.2-0.1,0.5-0.2,0.7-0.3c7.7-2.4,13.4-8.8,14.8-16.8l30.1-168.2
				c1.5-8.5-2.2-17.1-9.4-21.8c-0.1-0.1-0.2-0.1-0.3-0.2c-10.5-7.8-43.7-16.2-91.8-16.2l-1.3,0L137.6,171.9z"/>
		</g>
		<g>
			<path style="&st13;" d="M233.4,208.2c-13.3-9.6-50.4-16.5-94-16.5c-0.5,0-0.9,0-1.3,0c-0.6,0-1.3,0-1.9,0
				c-42.6,0-78.7,7.1-91.2,16.8c-8.3,5.6-13.2,15.5-11.2,26l29.7,146.3c1.8,9.8,9.1,17.5,18.5,20.3c12.6,5.6,33.7,9.3,57.5,9.3
				s44.9-3.7,57.5-9.3c9.4-2.8,16.7-10.5,18.5-20.3l29.7-146.3C247.2,223.8,242.1,213.6,233.4,208.2z"/>
		</g>
		<g>
			<g>
				<path style="&st0;" d="M159.3,361.2c0.1,5.4,1.2,11.4,0.2,17.1c-1.5,2.8-4.3,3.1-6.7,4.2c-3.4-0.5-6.3-2.8-7.7-6
					c-0.9-6.5,0.2-12.7,0.5-19.2c0-0.2,4,0.1,7.7,1.2C156.4,359.5,159.3,361.1,159.3,361.2L159.3,361.2z M129.1,361.6
					c-3,11.3,3.9,29.7,15.3,14.6c-0.9-6.4,0.1-12.6,0.4-18.8C145,356.8,129.2,360.9,129.1,361.6L129.1,361.6z"/>
			</g>
			<g>
				<path d="M160.5,366.2c-0.2-3.2-0.3-4.5-0.3-6.1v-0.7l-0.7-0.2l-13.4-4.2v-0.7l-1.4,0.3h-0.1v0.1l-15.1,3.8l-0.5,0.1l-0.2,0.5
					c-2.3,5.6-1.8,14.2,1.2,19.4c3.4,6,8.9,6.1,14.6-0.7c1.6,3.1,4.6,5.2,8,5.8h0.3l0.3-0.1c0.4-0.2,0.9-0.3,1.6-0.6
					c0.1,0,0.1,0,0.2-0.1c3.1-1.1,4.4-1.9,5.4-3.9l0.1-0.1v-0.2c0.3-1.9,0.4-3.9,0.4-6.2C160.9,370.7,160.8,369.2,160.5,366.2
					L160.5,366.2z M143.5,362.2c-0.1,1.9-0.2,2.7-0.3,3.7c-0.2,3.9-0.2,6.9,0.1,9.9c-5,6.4-8.9,6.4-11.6,1.6c-2.6-4.5-3.1-12-1.2-17
					l13.4-3.4C143.8,358.4,143.7,359.8,143.5,362.2z M158.4,378c-0.7,1.3-1.7,1.9-4.3,2.8c-0.1,0-0.1,0-0.2,0.1
					c-0.6,0.2-1.1,0.4-1.4,0.5c-2.9-0.5-5.3-2.4-6.5-5.1c-0.3-2.9-0.3-5.9-0.1-9.8c0.1-1.1,0.1-1.8,0.3-3.7c0.2-2.4,0.3-3.9,0.3-5.3
					l11.6,3.5c0,1.4,0.1,2.7,0.3,5.4c0.2,2.9,0.3,4.4,0.3,6.1C158.8,374.5,158.7,376.3,158.4,378z"/>
			</g>
			<g>
				<path style="&st0;" d="M65,314.8c9.8,38.1,70.8,28.3,68.5-9.9C130.7,259.1,55.7,267.9,65,314.8"/>
			</g>
			<g>
				<path d="M134.6,304.8c-0.6-11.1-5.5-19.7-13.6-25.1c-7.2-4.9-16.8-6.8-26.3-5.6c-9.5,1.3-18.2,5.5-24,12.2
					c-6.4,7.5-8.8,17.2-6.6,28.5l1-0.2l-1,0.2C74.1,354,136.9,344.5,134.6,304.8z M66,314.6c-2.1-10.8,0.2-19.9,6.2-26.8
					c5.4-6.3,13.6-10.4,22.7-11.6s18.1,0.6,24.9,5.3c7.6,5.1,12.1,13.1,12.8,23.6C134.8,342.3,75.5,351.2,66,314.6L66,314.6z"/>
			</g>
			<g>
				<ellipse cx="104.8" cy="291.3" rx="10.3" ry="11.2"/>
			</g>
			<g>
				<ellipse style="&st0;" cx="106.7" cy="285.3" rx="2.4" ry="2.9"/>
			</g>
			<g>
				<path style="&st0;" d="M150.6,307.7c7.6,43.8,79.1,32.2,68.8-11.9C210.1,256.1,148,267.1,150.6,307.7"/>
			</g>
			<g>
				<path d="M220.3,295.5c-9.5-40.8-73.4-29.6-70.8,12.2v0.1c3.5,20.7,21.9,31.2,42.3,27.8c9.3-1.6,17.6-6.1,23-12.7
					C220.8,315.6,222.9,306.2,220.3,295.5L220.3,295.5z M213.2,321.7c-5.1,6.2-12.9,10.4-21.7,11.9c-19.3,3.2-36.5-6.7-39.9-26.1
					c-2.3-39.4,57.9-49.9,66.9-11.6C220.8,306.1,218.9,314.9,213.2,321.7z"/>
			</g>
			<g>
				<ellipse cx="191.1" cy="288.5" rx="10.1" ry="11.2"/>
			</g>
			<g>
				<ellipse style="&st0;" cx="193" cy="282.5" rx="2.3" ry="2.9"/>
			</g>
			<g>
				<g>
					<path style="&st7;" d="M131.3,338.6c-8.4,0.7-15.2,10.6-10.9,18.5c5.7,10.4,18.6-1,26.6,0.1c9.3,0.2,16.8,9.8,24.2,1.7
						c8.2-8.9-3.5-17.7-12.8-21.5L131.3,338.6L131.3,338.6z"/>
				</g>
				<g>
					<path style="&st8;" d="M172.3,345.7c-2.9-3.6-7.9-6.9-13.3-9.2l-0.2-0.1h-0.2l-27.3,1.1c-9.5,0.9-16.3,11.8-11.7,20.1
						c1.8,3.2,4.3,4.8,7.6,5c2.4,0.1,5-0.4,8.9-1.8c0.3-0.1,0.7-0.2,1.3-0.4c5.3-1.8,7.5-2.3,9.6-2h0.1c2.6,0,4.7,0.7,8.7,2.3
						c4.5,1.8,5.9,2.3,8.1,2.6c3.1,0.2,5.8-0.9,8.2-3.5C176.3,355.2,176.1,350.3,172.3,345.7L172.3,345.7z M170.5,358.3
						c-2,2.2-4,3-6.5,2.9c-1.9-0.1-3.2-0.6-7.5-2.3c-4.3-1.8-6.6-2.4-9.4-2.6c-2.7-0.3-4.9,0.2-10.5,2.1c-0.5,0.2-1,0.3-1.3,0.4
						c-7.8,2.7-11.5,2.4-14.1-2.2c-3.8-6.9,2-16.3,10-17l26.9-1.1c5.1,2.1,9.7,5.2,12.4,8.5C173.8,350.8,173.9,354.7,170.5,358.3
						L170.5,358.3z"/>
				</g>
				<g>
					<path d="M160.6,334c-3.3-12.1-31-10.3-30.3,4.2C131.6,348.9,163.8,346,160.6,334z"/>
				</g>
			</g>
		</g>
		<g>
			<path style="&st12;" d="M140.9,416.2c-23.9,0-46.4-3.8-60.4-10.2c-11.7-3.8-20.3-13.6-22.4-25.7L27.9,212.1
				c-0.6-3.2,1.5-6.2,4.7-6.7c3.2-0.6,6.2,1.5,6.7,4.7l30.1,168.2c1.4,8,7.1,14.4,14.8,16.8c0.2,0.1,0.5,0.2,0.7,0.3
				c12.5,5.8,33.4,9.3,55.9,9.3s43.4-3.5,55.9-9.3c0.2-0.1,0.5-0.2,0.7-0.3c7.7-2.4,13.4-8.8,14.8-16.8l30.1-168.2
				c0.6-3.2,3.6-5.3,6.7-4.7c3.2,0.6,5.3,3.6,4.7,6.7l-30.1,168.2c-2.2,12.1-10.7,21.9-22.4,25.7
				C187.3,412.4,164.8,416.2,140.9,416.2z"/>
		</g>
		<g>
			<path style="&st14;" d="M139.5,191.7c-56.7,0-90.6,11.4-98.6,21.2c0,0.3-0.1,0.5-0.1,0.8c0,14.7,44.5,30.7,99.8,30.7
				c51.8,0,94.6-14.5,99.8-28C236.4,206.5,198.8,191.7,139.5,191.7z"/>
		</g>
		<path style="&st4;" d="M86.3,238.9c33.5,27.3,82.1,26.8,114.9-1.6c-16.9,4.3-37.9,7.1-60.6,7.1C120.6,244.4,102,242.3,86.3,238.9z
			"/>
		<path style="&st4;" d="M224.9,205.3c14.3-32.8,8-72.3-18.8-99.1l-86,86c6.1-0.3,12.5-0.5,19.3-0.5
			C178.5,191.7,208.1,198.1,224.9,205.3z"/>
		<path style="&st3;" d="M224.9,205.3c-16.9-7.2-46.5-13.6-85.4-13.6c-6.8,0-13.2,0.2-19.3,0.5l-40.7,40.7c2.2,2.2,4.4,4.2,6.8,6.1
			c15.6,3.4,34.3,5.5,54.3,5.5c22.7,0,43.7-2.8,60.6-7.1c1.7-1.4,3.3-2.9,4.9-4.5C214.4,224.6,220.6,215.3,224.9,205.3z"/>
		<path style="&st15;" d="M152.2,187.7l-0.2,4.2c1.6,0.1,3.1,0.1,4.7,0.2L152.2,187.7z"/>
		<path style="&st16;" d="M201.6,237.1c1.1,1,2.5,1.6,3.9,1.6c1.5,0,3-0.6,4.1-1.7c2.2-2.2,2.2-5.7,0.2-8c-1.2,1.3-2.4,2.6-3.6,3.9
			C204.7,234.3,203.2,235.7,201.6,237.1z"/>
		<path style="&st16;" d="M137.8,244.4l-0.7,14.3c-0.2,3.2,2.3,5.9,5.5,6.1c0.1,0,0.2,0,0.3,0c3.1,0,5.6-2.4,5.8-5.5l0.7-15
			c-2.9,0.1-5.8,0.1-8.7,0.1C139.7,244.4,138.7,244.4,137.8,244.4z"/>
		<path style="&st16;" d="M232.1,164l-85.4,4.4c-0.1,0-0.2,0-0.3,0c-0.1,0-0.3,0-0.4,0c-0.1,0-0.2,0-0.3,0.1c-0.2,0-0.3,0.1-0.5,0.1
			c-0.1,0-0.2,0.1-0.3,0.1c-0.1,0-0.2,0.1-0.3,0.1c-0.1,0.1-0.3,0.1-0.4,0.2c-0.1,0.1-0.2,0.1-0.3,0.2c-0.1,0-0.2,0.1-0.2,0.2
			c-0.1,0.1-0.2,0.2-0.4,0.3c-0.1,0.1-0.2,0.2-0.3,0.3c0,0-0.1,0-0.1,0.1c0,0-0.1,0.1-0.1,0.1c-0.1,0.1-0.2,0.2-0.3,0.3
			c-0.1,0.1-0.2,0.2-0.3,0.4c-0.1,0.1-0.1,0.2-0.2,0.2c-0.1,0.1-0.1,0.2-0.2,0.3c-0.1,0.1-0.2,0.3-0.2,0.4c0,0.1-0.1,0.2-0.1,0.3
			c0,0.1-0.1,0.2-0.1,0.4c0,0.1-0.1,0.3-0.1,0.4c0,0.1,0,0.2-0.1,0.3c0,0.1,0,0.3,0,0.4c0,0.1,0,0.2,0,0.3l-0.9,17.7
			c4,0,7.8,0.1,11.6,0.2l0.2-4.2l4.5,4.5c6.2,0.3,12.2,0.8,17.8,1.4l-14.1-14.1l72.4-3.8c3.2-0.2,5.7-2.9,5.5-6.1
			C238,166.3,235.3,163.9,232.1,164z"/>
		<path style="&st17;" d="M139.5,191.7c-6.8,0-13.2,0.2-19.3,0.5l-40.7,40.7c2.2,2.2,4.4,4.2,6.8,6.1c14.9,3.2,32.5,5.3,51.5,5.5
			l2.6-52.7C140.1,191.7,139.8,191.7,139.5,191.7z"/>
		<path style="&st17;" d="M209.8,228.9c6.4-7.2,11.5-15.2,15.1-23.6c-11.4-4.9-28.6-9.4-50.5-11.8l35.2,35.2
			C209.7,228.8,209.7,228.9,209.8,228.9z"/>
		<path style="&st17;" d="M156.6,192.1c-1.5-0.1-3.1-0.1-4.7-0.2l-2.5,52.4c19.4-0.6,37.2-3.2,51.9-6.9c0.1-0.1,0.2-0.2,0.3-0.3
			c-0.1-0.1-0.1-0.1-0.2-0.1L156.6,192.1z"/>
		<path style="&st18;" d="M140.3,191.7l-2.6,52.7c1,0,1.9,0,2.9,0c2.9,0,5.9,0,8.7-0.1l2.5-52.4
			C148.2,191.8,144.3,191.7,140.3,191.7z"/>
		<path style="&st18;" d="M201.4,236.9c0.1,0.1,0.1,0.1,0.2,0.1c1.6-1.4,3.1-2.8,4.6-4.3c1.3-1.3,2.5-2.6,3.6-3.9
			c-0.1-0.1-0.1-0.2-0.2-0.2l-35.2-35.2c-5.6-0.6-11.6-1.1-17.8-1.4L201.4,236.9z"/>
		<path style="&st19;" d="M142.9,253.2c-14.8,0-29.7-3.9-42.8-11.8c-8.8-1.3-16.8-3.1-24-5.1l-0.5,0.5c18.6,18.6,43,27.9,67.4,27.9
			c24.4,0,48.8-9.3,67.4-27.9c1-1,2-2.1,2.9-3.1c-7.4,2.5-16.1,4.7-25.7,6.5C173.9,248.9,158.4,253.2,142.9,253.2z"/>
		<path style="&st19;" d="M210.3,102.1l-8.2,8.2c25.1,25.1,30.9,62.2,17.4,92.9c4.1,1.5,7.7,3,10.7,4.6
			C245.4,172.9,238.8,130.6,210.3,102.1z"/>
		<path style="&st20;" d="M219.5,203.2c-4.1,9.3-9.9,18-17.4,25.5c-4.5,4.5-9.4,8.4-14.6,11.6c9.6-1.8,18.3-4,25.7-6.5
			c7.2-7.9,12.8-16.7,16.9-26C227.2,206.2,223.6,204.7,219.5,203.2z"/>
		<path style="&st20;" d="M83.7,228.7l-7.7,7.7c7.2,2,15.3,3.7,24,5.1C94.2,237.9,88.7,233.7,83.7,228.7z"/>
		<g>
			<path style="&st12;" d="M140.9,223.1c-51.3,0-106.5-9.8-106.5-31.4c0-3.2,2.6-5.8,5.8-5.8c3.2,0,5.8,2.6,5.8,5.8
				c0,5.9,32.3,19.8,94.9,19.8s94.9-13.9,94.9-19.8c0-3.2,2.6-5.8,5.8-5.8s5.8,2.6,5.8,5.8C247.4,213.2,192.2,223.1,140.9,223.1z"/>
		</g>
	</g>
</g>
</svg>
