<?xml version="1.0" encoding="utf-8"?>
<!-- Generator: Adobe Illustrator 18.0.0, SVG Export Plug-In . SVG Version: 6.00 Build 0)  -->
<!DOCTYPE svg PUBLIC "-//W3C//DTD SVG 1.1//EN" "http://www.w3.org/Graphics/SVG/1.1/DTD/svg11.dtd" [
	<!ENTITY st0 "fill:#FFFFFF;">
	<!ENTITY st1 "fill:#4D4D4D;">
	<!ENTITY st2 "fill:#FFFFFF;stroke:#0090D1;stroke-width:8;stroke-linecap:round;stroke-linejoin:round;stroke-miterlimit:10;">
	<!ENTITY st3 "fill:#69D7E2;">
	<!ENTITY st4 "fill:#FFCC00;">
	<!ENTITY st5 "fill:#FFCC00;stroke:#FFFF99;stroke-width:8;stroke-linecap:round;stroke-linejoin:round;stroke-miterlimit:10;">
	<!ENTITY st6 "fill:none;stroke:#99CC33;stroke-width:8;stroke-linejoin:round;stroke-miterlimit:10;">
	<!ENTITY st7 "fill:#F6D2A2;">
	<!ENTITY st8 "fill:#231F20;">
	<!ENTITY st9 "fill:none;stroke:#0090D1;stroke-width:8;stroke-linecap:round;stroke-linejoin:round;stroke-miterlimit:10;">
	<!ENTITY st10 "opacity:0.5;fill:#69D7E2;">
	<!ENTITY st11 "fill:#FFFFFF;stroke:#4D4D4D;stroke-width:4;stroke-miterlimit:10;">
	<!ENTITY st12 "fill:#0090D1;">
	<!ENTITY st13 "fill:#5EE4EC;">
	<!ENTITY st14 "fill:#42D2DE;">
	<!ENTITY st15 "fill:none;">
	<!ENTITY st16 "fill:#FFFF99;">
	<!ENTITY st17 "fill:#B4CA00;">
	<!ENTITY st18 "fill:#B4EBB0;">
	<!ENTITY st19 "fill:#99CC33;">
	<!ENTITY st20 "fill:#64CA5D;">
]>
<svg version="1.1" id="Layer_2" xmlns="http://www.w3.org/2000/svg" xmlns:xlink="http://www.w3.org/1999/xlink" x="0px" y="0px"
	 viewBox="0 0 2179.1 1591" style="enable-background:new 0 0 2179.1 1591;" xml:space="preserve">
<g>
	<g>
		<g>
			<path style="&st0;" d="M593.9,1572.9c-113.6,0-220-18.1-292.1-49.7c-78.4-27.4-136.2-95.1-150.8-176.9L21.5,622
				C5.9,535.1,42.3,445.7,114,394.2c117.2-91.3,386-98.4,465.6-98.4l8.5,0l5.5,0c4.1,0,8.2,0,12.3,0L877.2,24.5
				c4.2-4.2,9.7-6.5,15.6-6.5c5.9,0,11.4,2.3,15.6,6.5l46.3,46.3c92.3,92.3,143.9,214.9,145.6,345.6
				c54.9,53.4,79.6,129.9,66.1,205.6l-39.8,222.4c38.5-21.4,84.3-32.7,132.7-32.7c36.3,0,69.8,5.6,99.6,16.5
				c29.8-17.2,57.4-23,71.4-25c6.4-1,13.2-1.5,19.9-1.5c3.8,0,7.7,0.2,11.6,0.5c-1.2-8.5-1.6-17.1-1.2-25.7
				c3.5-73,63.1-130.1,135.7-130.1c36.3,0,71.5,15,96.5,41.2c24,25.1,37.1,59.1,36.4,93.7l1.6-0.4l-2,41.7l164.9-35.7
				c1.5-0.3,3.1-0.5,4.7-0.5c6,0,11.8,2.5,15.9,6.8c3.3,3.5,5.4,7.9,5.9,12.6c11-1.9,22.3-2.9,33.3-2.9
				c57.4,0,103.2,17.4,135.9,51.7c36.1,37.9,52,90.7,48.6,161.6l-7.4,155.1l15.7,5.1c9.4,3.1,15.6,12.1,15.1,22
				c-4,84.9-73.8,151.5-158.8,151.5h-505.6c-11.5,37.3-43.4,104.5-130.2,152c-58.9,32-128.3,49.6-195.5,49.6
				c-88,0-158.2-33.7-190.8-90.8c-25.7,28.2-57.9,49.5-94.2,62.2C814,1554.8,707.5,1572.9,593.9,1572.9z"/>
		</g>
		<g>
			<g>
				<path style="&st1;" d="M892.8,30.6c2.4,0,4.9,0.9,6.7,2.8l46.3,46.3c90.3,90.3,140.6,210.3,142,338.1c0,0.6,0.2,3.3,0.2,4.2
					c53.6,49.9,79.2,124.2,66,197.8l-40.9,228.8c-1.1,6.2,3.8,11.2,9.3,11.2c1.6,0,3.2-0.4,4.8-1.3c36.7-21.8,82-34.2,132-34.2
					c35.5,0,68,5.5,96.6,16.2c1.1,0.4,2.2,0.6,3.3,0.6c1.7,0,3.4-0.5,4.9-1.3c28.9-16.9,56-22.4,67.9-24.1c6-0.9,12.1-1.4,18.1-1.4
					c4.7,0,9.4,0.3,14,0.9c0.4,0,0.8,0.1,1.1,0.1c5.7,0,10.4-5.4,9.3-11.2c-1.5-8.7-2.1-17.7-1.7-26.9
					c3.2-66.3,57.3-118.2,123.2-118.2c32.9,0,64.8,13.6,87.4,37.4c22.4,23.5,34.4,55.6,32.8,88c-0.2,4.4-0.6,8.7-1.3,12.9l2.3-0.5
					c0,0-0.5,11-1.4,29.2c-0.3,5.6,4.2,10.1,9.5,10.1c0.7,0,1.3-0.1,2-0.2l168.7-36.4c0.7-0.1,1.4-0.2,2-0.2c5.3,0,9.8,4.4,9.5,10
					c-0.3,5.5,4.1,10,9.4,10c0.6,0,1.2-0.1,1.7-0.2c11.5-2.1,23.1-3.3,34.5-3.3c53.9,0,96.6,16.1,126.8,47.8
					c33.6,35.3,48.4,85.1,45.2,152.4c0,0-6,125.6-7.5,157.3c-0.2,4.3,2.5,8.1,6.5,9.5l17.8,5.9c4.1,1.3,6.7,5.2,6.5,9.5
					c-3.7,78.1-68.1,139.6-146.3,139.6h-278.8h-104.2h-124.7c-4.2,0-7.9,2.7-9.1,6.7c-8.9,30-37,98.7-124.9,146.8
					c-59,32.1-126.2,48.1-189.5,48.1c-88.8,0-158.1-35.6-185.4-95.1c-0.9-2-1.7-4.1-2.5-6.1c-25.5,33.4-60.5,59.2-101.6,73.5
					c-70.6,31.1-175,48.9-287.5,48.9s-216.9-17.8-287.5-48.9c-74.5-25.8-129.1-89.6-143.1-167.5L33.8,619.8
					C19,537.4,53.4,453.1,121.3,404.4c114.4-89.1,379.4-96.1,458.3-96.1l8.5,0c0,0,5.5,0,5.5,0c4.5,0,9,0,13.5,0.1c0,0,0,0,0.1,0
					c2.5,0,4.9-1,6.7-2.8L886.1,33.4C887.9,31.5,890.4,30.6,892.8,30.6 M892.8,5.6c-9.2,0-17.9,3.6-24.4,10.1L600.8,283.3
					c-2.4,0-4.8,0-7.2,0c0,0-5.7,0-5.7,0l-8.2,0c-103.3,0-355.7,9.9-473.4,101C30.9,438.7-7.2,532.8,9.2,624.2l129.5,724.3
					c15.4,86.1,76.1,157.4,158.5,186.3c73.6,32.2,181.6,50.6,296.7,50.6s223.1-18.4,296.7-50.6c32.9-11.6,62.7-29.9,87.6-53.8
					c37.6,52.6,107.4,83.3,192.9,83.3c69.2,0,140.7-18.2,201.4-51.1c84.3-46.1,119.1-110.2,133.3-150.5h113.5h104.2h278.8
					c91.7,0,167-71.8,171.3-163.4c0.7-15.4-9-29.6-23.7-34.4l-6.6-2.2l7-145.6c3.6-74.5-13.5-130.3-52.1-170.8
					c-35.2-36.9-83.9-55.6-144.9-55.6c-8.2,0-16.5,0.5-24.9,1.5c-1.4-2.6-3.2-5.1-5.3-7.3c-6.5-6.8-15.6-10.7-25-10.7
					c-2.4,0-4.9,0.3-7.3,0.8l-149,32.2l0.4-9.1l1.6-32.5l-2.9,0.6c-2.9-32.3-16.7-63.3-39.3-87c-27.3-28.7-65.8-45.1-105.5-45.1
					c-79.2,0-144.3,62.4-148.1,142c-0.2,4.4-0.2,8.9,0,13.3c-6.5,0.1-13.1,0.6-19.6,1.6c-14.1,2-41,7.6-70.6,23.7
					c-29.8-10.2-62.9-15.4-98.5-15.4c-41.4,0-80.9,7.9-116.1,23.1l35.4-198.1c14-78.1-10.6-156.9-66-213.1
					c-3-132-55.8-255.8-149.2-349.1l-46.3-46.3C910.7,9.2,902,5.6,892.8,5.6L892.8,5.6z"/>
			</g>
		</g>
	</g>
	<g>
		<g>
			<path style="&st1;" d="M1418.7,955.4c-6.6-8.6-9.2-18.7-6.4-28.8c1.1-6.2-20.9-2.3-35,15.6c17.8,19.5,26.6,46.8,25.3,74.8
				c-3,63.1-61,118.5-154.5,118.5c-30.4,0-53.6-3.9-72.7-12.5c-28.4,7.8-75.6,80.3,11.7,80.3h101.3c53.8,0,145.7,1.6,126.4,111.5
				c0,0-6.1,63.1-90.2,109.1c-110.4,60-242.5,50.7-270.7-10.9c-25.4-54.6,18.8-114.6,68.3-139.5c-21.3-10.1-35.9-31.2-34.4-62.4
				c0,0,1-68.6,76.2-93.5c-38.9-17.1-59.5-59.2-57.5-100.5c3-63.1,61-117.7,153-117.7c49.1,0,85.9,13.2,109.8,35.1
				c22.5-31.2,55.8-42.1,73.8-44.4c14.1-2.3,29.5,2.3,39.1,13.2c13.2,17.1,9.7,42.1-7.4,56.1C1456.8,974.1,1432,971.8,1418.7,955.4z
				 M1318.8,1413.7c57.8-34.3,53.9-82.6,53.9-82.6s-2.7-40.5-64.3-40.5h-107.6c-8.6,0-38.3,1.6-66.5-10.1
				c-75.4,44.4-20.9,109.9-21.6,109.1C1150.1,1437.1,1245.8,1456.5,1318.8,1413.7z M1258.7,911c-39,0-68.7,18.7-72.9,106
				c-4.2,87.3,28.4,106.8,62.7,106.8c35.9,0,70.3-19.5,74.5-106.8C1327.2,929.7,1292.2,911,1258.7,911z"/>
		</g>
		<g>
			<path style="&st1;" d="M1652,1257.8h-145l0.6-11.7c30.1-9.4,32.7-32,34.6-71.7l9.3-194.8c1.3-26.5-6-37.4-37.3-50.7l0.6-11.7
				l122.9-26.5l-13.6,283.7c-2.1,42.9,0.8,63.9,28.5,71.7L1652,1257.8z M1547.9,780.8c1.2-25.7,22.5-46.8,48.2-46.8
				s46.5,21,45.3,46.8c-1.2,25.7-24,46-49.7,46S1546.7,806.5,1547.9,780.8z"/>
		</g>
		<g>
			<path style="&st1;" d="M2070.6,1257.8h-145.8l0.6-11.7c30-8.6,32.7-32,34.6-71.7l7.7-159.8c2.2-45.2-22.8-76.4-68-76.4
				c-35.1,0-71.9,35.9-76.4,65.5l-8.2,171.5c-2.1,42.9,1.6,63.1,28.6,70.9l-0.6,11.7h-145l0.6-11.7c30-8.6,31.9-31.2,33.8-70.9
				l9.4-196.4c1.3-27.3-5.3-36.6-36.6-49.9l0.6-11.7l122.9-26.5l-4,82.6c19.4-46.8,79.6-82.6,128.7-82.6
				c61.6,0,101.6,27.3,97.1,121.6l-7.8,162.1c-2.1,42.9,0.8,64.7,28.5,71.7L2070.6,1257.8z"/>
		</g>
	</g>
	<g>
		<g>
			<path style="&st0;" d="M1004.1,482.9c-58.3-43.4-219.9-74.6-410.2-74.6c-2,0-3.9,0-5.9,0c-2.8,0-5.6,0-8.4,0
				c-186.1,0-343.8,32-398.3,76.1c-36.4,25.2-57.5,70.2-49,117.7l129.5,724.3c7.9,44.2,39.9,79,81,91.7
				c55.1,25.5,147,42.2,251.2,42.2s196.1-16.7,251.2-42.2c41.1-12.8,73.1-47.5,81-91.7l129.5-724.3
				C1064.3,553.6,1042,507.7,1004.1,482.9z"/>
			<path style="&st12;" d="M593.9,1485.4c-102.8,0-199.8-16.4-260.2-43.8c-50.3-16.3-87.2-58.6-96.6-110.7L107.6,606.6
				c-9.8-54.6,13.3-110.3,58.7-142.1c61.8-49.3,223.8-81.1,413.3-81.1l8.5,0l5.8,0c192.8,0,359.2,31,424.6,79.1
				c47.5,31.6,71.8,88.1,61.7,144.2l-129.5,724.3c-9.3,52.2-46.3,94.4-96.6,110.7C793.8,1469,696.7,1485.4,593.9,1485.4z
				 M579.6,433.3c-203,0-340.7,36.6-382.6,70.6c-0.5,0.4-1,0.8-1.5,1.1c-29.9,20.7-45,57.1-38.7,92.8l129.5,724.3
				c6.1,34.2,30.6,61.9,63.8,72.3c1.1,0.3,2.1,0.7,3.1,1.2c54,25,143.9,39.9,240.7,39.9s186.7-14.9,240.7-39.9c1-0.5,2-0.9,3.1-1.2
				c33.2-10.3,57.7-38,63.8-72.3L1031,597.8c6.6-36.6-9.4-73.5-40.6-94c-0.4-0.3-0.8-0.5-1.2-0.8c-45.1-33.5-188-69.6-395.3-69.6
				l-5.8,0L579.6,433.3z"/>
		</g>
		<g>
			<path style="&st13;" d="M992.2,589.5c-57.5-41.3-216.8-71-404.6-71c-1.9,0-3.9,0-5.8,0c-2.8,0-5.5,0-8.3,0
				c-183.5,0-339.1,30.4-392.8,72.5c-35.9,24-56.8,66.8-48.4,112.1l127.8,629.9c7.8,42.1,39.3,75.2,79.9,87.3
				c54.3,24.3,145,40.2,247.7,40.2s193.4-15.9,247.7-40.2c40.5-12.2,72.1-45.2,79.9-87.3L1043,703
				C1051.5,656.8,1029.5,613.1,992.2,589.5z"/>
		</g>
		<g>
			<g>
				<path style="&st0;" d="M673.1,1248.3c0.5,23.4,5,49.1,0.9,73.8c-6.4,11.9-18.3,13.3-28.9,17.9c-14.7-2.3-27.1-11.9-33-25.7
					c-3.7-28,0.9-54.6,2.3-82.5c0-0.9,17.4,0.5,33,5C660.7,1241,673.1,1247.9,673.1,1248.3L673.1,1248.3z M543.3,1250.2
					c-12.8,48.6,17,127.9,66,62.8c-3.7-27.5,0.5-54.1,1.8-81.2C611.6,1229.6,543.8,1247,543.3,1250.2L543.3,1250.2z"/>
			</g>
			<g>
				<path d="M678.6,1269.9c-0.9-13.8-1.4-19.3-1.4-26.1v-3.2l-3.2-0.9l-57.8-17.9v-3.2l-6,1.4h-0.5v0.5l-65.1,16.5l-2.3,0.5
					l-0.9,2.3c-10.1,24.3-7.8,61,5,83.4c14.7,25.7,38.5,26.1,62.8-3.2c6.9,13.3,19.6,22.4,34.4,24.8h1.4l1.4-0.5
					c1.8-0.9,3.7-1.4,6.9-2.8c0.5,0,0.5,0,0.9-0.5c13.3-4.6,18.8-8.3,23.4-17l0.5-0.5v-0.9c1.4-8.3,1.8-17,1.8-26.6
					C679.9,1289.2,679.5,1282.7,678.6,1269.9L678.6,1269.9z M605.2,1252.9c-0.5,8.3-0.9,11.5-1.4,16c-0.9,17-0.9,29.8,0.5,42.6
					c-21.6,27.5-38.5,27.5-50,6.9c-11-19.3-13.3-51.8-5-73.4l57.8-14.7C606.6,1236.4,606.1,1242.4,605.2,1252.9z M669.4,1320.8
					c-3.2,5.5-7.3,8.3-18.3,11.9c-0.5,0-0.5,0-0.9,0.5c-2.7,0.9-4.6,1.8-6,2.3c-12.4-2.3-22.9-10.5-28-22
					c-1.4-12.4-1.4-25.2-0.5-42.2c0.5-4.6,0.5-7.8,1.4-16.1c0.9-10.5,1.4-17,1.4-22.9l50,15.1c0,6,0.5,11.5,1.4,23.4
					c0.9,12.4,1.4,18.8,1.4,26.1C671.2,1305.7,670.8,1313.5,669.4,1320.8z"/>
			</g>
			<g>
				<path style="&st0;" d="M267.3,1048.6c42.2,164.1,304.9,122,294.8-42.6C550.2,808.8,227,846.9,267.3,1048.6"/>
			</g>
			<g>
				<path d="M566.7,1005.5c-2.8-47.7-23.8-84.8-58.7-108.2c-31.2-21.1-72.4-29.3-113.2-24.3c-40.8,5.5-78.4,23.8-103.2,52.7
					c-27.5,32.1-38.1,74.3-28.4,122.9l4.1-0.9l-4.1,0.9C306.3,1217.3,576.8,1176.5,566.7,1005.5z M271.4,1047.7
					c-9.2-46.3,0.9-85.7,26.6-115.5c23.4-27.1,58.7-44.9,97.7-50c39-5,77.9,2.8,107.3,22.9c32.5,22,52.3,56.4,55,101.8
					C567.6,1166.9,312.2,1205.4,271.4,1047.7L271.4,1047.7z"/>
			</g>
			<g>
				<ellipse cx="438.7" cy="947.3" rx="44.5" ry="48.1"/>
			</g>
			<g>
				<ellipse style="&st0;" cx="446.6" cy="921.7" rx="10.5" ry="12.4"/>
			</g>
			<g>
				<path style="&st0;" d="M635.7,1017.9c32.6,188.4,340.7,138.5,296.2-51.4C892,796,624.7,843.2,635.7,1017.9"/>
			</g>
			<g>
				<path d="M936.1,965.6c-40.8-175.6-315.9-127.5-304.9,52.7v0.5c15.1,88.9,94.5,134.3,182,119.7c39.9-6.9,75.6-26.1,99-54.6
					C937.9,1052.3,947.1,1011.5,936.1,965.6L936.1,965.6z M905.3,1078.4c-22,26.6-55.5,44.9-93.5,51.4
					c-83,13.8-157.3-28.9-171.9-112.3c-10.1-169.6,249.4-215,287.9-50C937.9,1011,929.6,1049.1,905.3,1078.4z"/>
			</g>
			<g>
				<ellipse cx="810.3" cy="935.4" rx="43.6" ry="48.1"/>
			</g>
			<g>
				<ellipse style="&st0;" cx="818.2" cy="909.8" rx="10.1" ry="12.4"/>
			</g>
			<g>
				<g>
					<path style="&st7;" d="M552.8,1151.1c-36.2,3.2-65.6,45.8-46.8,79.8c24.8,44.9,80.2-4.1,114.6,0.5
						c39.9,0.9,72.4,42.2,104.1,7.3c35.3-38.5-15.1-76.1-55-92.6L552.8,1151.1L552.8,1151.1z"/>
				</g>
				<g>
					<path style="&st8;" d="M729.3,1181.9c-12.4-15.6-33.9-29.8-57.3-39.4l-0.9-0.5h-0.9l-117.4,4.6c-40.8,3.7-70.1,50.9-50.4,86.7
						c7.8,13.8,18.3,20.6,32.6,21.6c10.5,0.5,21.6-1.8,38.5-7.8c1.4-0.5,3.2-0.9,5.5-1.8c22.9-7.8,32.1-10.1,41.3-8.7h0.5
						c11,0,20.2,3.2,37.6,10.1c19.3,7.8,25.2,10.1,34.8,11c13.3,0.9,24.8-3.7,35.3-15.1C746.2,1222.7,745.3,1201.6,729.3,1181.9
						L729.3,1181.9z M721.5,1236c-8.7,9.6-17.4,12.8-28,12.4c-8.3-0.5-13.8-2.8-32.1-10.1c-18.3-7.8-28.4-10.5-40.3-11
						c-11.5-1.4-21.1,0.9-45.4,9.2c-2.3,0.9-4.1,1.4-5.5,1.8c-33.5,11.5-49.5,10.5-60.5-9.6c-16.5-29.8,8.7-70.1,43.1-73.4l116-4.6
						c22,9.2,41.7,22.5,53.2,36.7C735.7,1203.9,736.2,1220.4,721.5,1236L721.5,1236z"/>
				</g>
				<g>
					<path d="M678.9,1131.4c-14.2-52.3-133.4-44.5-130.7,17.9C554.1,1195.6,692.6,1183.2,678.9,1131.4z"/>
				</g>
			</g>
		</g>
		<g>
			<path style="&st12;" d="M593.9,1485.4c-102.8,0-199.8-16.4-260.2-43.8c-50.3-16.3-87.2-58.6-96.6-110.7L107.6,606.6
				c-2.4-13.6,6.6-26.6,20.2-29c13.6-2.5,26.6,6.6,29,20.2l129.5,724.3c6.1,34.2,30.6,61.9,63.8,72.3c1.1,0.3,2.1,0.7,3.1,1.2
				c54,25,143.9,39.9,240.7,39.9s186.7-14.9,240.7-39.9c1-0.5,2-0.9,3.1-1.2c33.2-10.3,57.7-38,63.8-72.3L1031,597.8
				c2.4-13.6,15.4-22.7,29-20.2c13.6,2.4,22.6,15.4,20.2,29l-129.5,724.3c-9.3,52.2-46.3,94.4-96.6,110.7
				C793.8,1469,696.7,1485.4,593.9,1485.4z"/>
		</g>
		<g>
			<path style="&st14;" d="M588,518.5c-244.2,0-390,48.9-424.6,91.4c-0.1,1.1-0.3,2.2-0.3,3.3c0,63.4,191.8,132.4,429.8,132.4
				c222.9,0,407.4-62.6,429.8-120.4C1005.2,582.3,843.3,518.5,588,518.5z"/>
		</g>
		<path style="&st4;" d="M359,721.9c144.1,117.7,353.3,115.3,494.9-6.8c-72.6,18.4-163.1,30.5-261,30.5
			C506.5,745.6,426.3,736.5,359,721.9z"/>
		<path style="&st4;" d="M955.9,577.1c61.5-141.1,34.6-311.4-80.7-426.7L505,520.5c26.3-1.3,53.9-2,83-2
			C755.8,518.5,883.2,546.1,955.9,577.1z"/>
		<path style="&st3;" d="M955.9,577.1c-72.6-31.1-200.1-58.6-367.8-58.6c-29.1,0-56.8,0.7-83,2L329.9,695.6
			c9.3,9.3,19.1,18.1,29.1,26.3c67.3,14.6,147.5,23.7,234,23.7c97.9,0,188.4-12.1,261-30.5c7.2-6.2,14.3-12.7,21.2-19.5
			C910.3,660.4,937.1,620.1,955.9,577.1z"/>
		<path style="&st15;" d="M642.4,501.2l-0.9,18.3c6.8,0.2,13.4,0.5,20.1,0.9L642.4,501.2z"/>
		<path style="&st16;" d="M855.3,713.9c4.8,4.4,10.8,6.7,16.9,6.7c6.4,0,12.8-2.4,17.7-7.3c9.4-9.4,9.7-24.5,0.8-34.3
			c-5,5.6-10.2,11.2-15.6,16.6C868.7,702,862,708.1,855.3,713.9z"/>
		<path style="&st16;" d="M580.5,745.5l-3,61.8c-0.7,13.8,10,25.5,23.8,26.2c0.4,0,0.8,0,1.2,0c13.3,0,24.3-10.4,25-23.8l3.1-64.6
			c-12.4,0.4-25,0.6-37.7,0.6C588.8,745.6,584.7,745.5,580.5,745.5z"/>
		<path style="&st16;" d="M986.7,399.5l-367.8,19.2c-0.5,0-0.9,0.2-1.3,0.2c-0.5,0.1-1.1,0.1-1.6,0.2c-0.4,0.1-0.8,0.2-1.3,0.3
			c-0.7,0.2-1.3,0.4-2,0.6c-0.5,0.2-1,0.3-1.4,0.4c-0.4,0.2-0.8,0.3-1.2,0.5c-0.6,0.3-1.2,0.6-1.8,0.9c-0.5,0.3-0.9,0.5-1.4,0.8
			c-0.3,0.2-0.7,0.5-1,0.7c-0.5,0.4-1,0.8-1.5,1.2c-0.5,0.4-0.9,0.8-1.4,1.2c-0.1,0.1-0.3,0.2-0.4,0.3c-0.2,0.2-0.3,0.3-0.4,0.5
			c-0.4,0.4-0.8,0.9-1.1,1.3c-0.4,0.5-0.9,1-1.3,1.6c-0.2,0.3-0.5,0.6-0.7,1c-0.3,0.4-0.5,0.9-0.8,1.4c-0.3,0.6-0.7,1.2-0.9,1.8
			c-0.2,0.4-0.3,0.7-0.5,1.1c-0.2,0.5-0.3,1-0.5,1.6c-0.2,0.6-0.4,1.2-0.5,1.9c-0.1,0.4-0.2,0.8-0.3,1.2c-0.1,0.6-0.1,1.2-0.2,1.8
			c0,0.4-0.2,0.8-0.2,1.2l-3.7,76.1c17.1,0,33.8,0.4,50,1l0.9-18.3l19.2,19.2c26.9,1.4,52.5,3.4,76.8,6.1l-60.8-60.8l311.7-16.2
			c13.8-0.7,24.4-12.5,23.7-26.3C1012.3,409.4,1000.6,398.7,986.7,399.5z"/>
		<path style="&st17;" d="M588,518.5c-29.1,0-56.8,0.7-83,2L329.9,695.6c9.3,9.3,19.1,18.1,29.1,26.3c64,13.9,139.9,22.7,221.5,23.6
			l11-226.9C590.4,518.5,589.2,518.5,588,518.5z"/>
		<path style="&st17;" d="M890.7,679c27.6-31,49.3-65.4,65.2-101.8c-49-21-123-40.3-217.4-50.7l151.4,151.4
			C890.2,678.2,890.4,678.6,890.7,679z"/>
		<path style="&st17;" d="M661.6,520.4c-6.6-0.3-13.3-0.6-20.1-0.9L630.6,745c83.4-2.6,160.1-13.9,223.3-29.9
			c0.4-0.4,0.9-0.8,1.3-1.2c-0.3-0.2-0.5-0.4-0.8-0.6L661.6,520.4z"/>
		<path style="&st18;" d="M591.5,518.5l-11,226.9c4.2,0,8.2,0.2,12.4,0.2c12.7,0,25.2-0.2,37.7-0.6l10.9-225.5
			C625.3,518.9,608.6,518.6,591.5,518.5z"/>
		<path style="&st18;" d="M854.5,713.3c0.2,0.2,0.5,0.4,0.8,0.6c6.8-5.9,13.4-11.9,19.8-18.3c5.4-5.4,10.6-11,15.6-16.6
			c-0.3-0.3-0.5-0.7-0.8-1L738.4,526.5c-24.3-2.7-49.9-4.7-76.8-6.1L854.5,713.3z"/>
		<path style="&st19;" d="M602.5,783.3c-63.9,0-127.9-16.9-184.5-50.6c-37.7-5.7-72.5-13.1-103.5-21.8l-2.3,2.3
			c80,80,185.2,120,290.3,120c105.1,0,210.2-40,290.3-120c4.4-4.4,8.6-8.8,12.7-13.4c-32,10.9-69.4,20.4-110.7,28
			C736.2,764.8,669.4,783.3,602.5,783.3z"/>
		<path style="&st19;" d="M892.8,132.7l-35.4,35.4C965.4,276,990.3,435.9,932.5,568c17.8,6.4,33.1,13.1,45.9,19.8
			C1044.1,437.5,1015.6,255.6,892.8,132.7z"/>
		<path style="&st20;" d="M932.5,568c-17.5,39.9-42.4,77.3-75,109.9c-19.4,19.4-40.4,36-62.7,50c41.3-7.5,78.7-17.1,110.7-28
			c31.1-33.9,55.3-71.9,72.9-112.1C965.6,581.1,950.3,574.4,932.5,568z"/>
		<path style="&st20;" d="M347.6,677.9l-33,33c31,8.6,65.8,16.1,103.5,21.8C392.9,717.8,369.2,699.5,347.6,677.9z"/>
		<g>
			<path style="&st12;" d="M593.9,653.7c-220.8,0-458.5-42.3-458.5-135.2c0-13.8,11.2-25,25-25c13.8,0,25,11.2,25,25
				c0,25.5,139,85.2,408.5,85.2s408.5-59.7,408.5-85.2c0-13.8,11.2-25,25-25c13.8,0,25,11.2,25,25
				C1052.4,611.4,814.7,653.7,593.9,653.7z"/>
		</g>
	</g>
</g>
</svg>
