<?xml version="1.0" encoding="utf-8"?>
<!-- Generator: Adobe Illustrator 18.0.0, SVG Export Plug-In . SVG Version: 6.00 Build 0)  -->
<!DOCTYPE svg PUBLIC "-//W3C//DTD SVG 1.1//EN" "http://www.w3.org/Graphics/SVG/1.1/DTD/svg11.dtd" [
	<!ENTITY st0 "fill:#FFFFFF;">
	<!ENTITY st1 "fill:#4D4D4D;">
	<!ENTITY st2 "fill:#0090D1;">
	<!ENTITY st3 "fill:#69D7E2;">
	<!ENTITY st4 "fill:#FFCC00;">
	<!ENTITY st5 "fill:none;">
	<!ENTITY st6 "fill:#FFFF99;">
	<!ENTITY st7 "fill:#99CC33;">
	<!ENTITY st8 "fill:#F6D2A2;">
	<!ENTITY st9 "fill:#231F20;">
	<!ENTITY st10 "opacity:0.5;">
	<!ENTITY st11 "fill:#FFFFFF;stroke:#0090D1;stroke-width:8;stroke-linecap:round;stroke-linejoin:round;stroke-miterlimit:10;">
	<!ENTITY st12 "fill:#FFCC00;stroke:#FFFF99;stroke-width:8;stroke-linecap:round;stroke-linejoin:round;stroke-miterlimit:10;">
	<!ENTITY st13 "fill:none;stroke:#99CC33;stroke-width:8;stroke-linejoin:round;stroke-miterlimit:10;">
	<!ENTITY st14 "fill:none;stroke:#0090D1;stroke-width:8;stroke-linecap:round;stroke-linejoin:round;stroke-miterlimit:10;">
	<!ENTITY st15 "opacity:0.5;fill:#69D7E2;">
	<!ENTITY st16 "fill:#FFFFFF;stroke:#4D4D4D;stroke-width:4;stroke-miterlimit:10;">
]>
<svg version="1.1" id="Layer_2" xmlns="http://www.w3.org/2000/svg" xmlns:xlink="http://www.w3.org/1999/xlink" x="0px" y="0px"
	 viewBox="0 0 512 512" style="enable-background:new 0 0 512 512;" xml:space="preserve">
<g>
	<g>
		<g>
			<path style="&st0;" d="M140.6,437c-26.5,0-51.2-4.2-68-11.6c-18.3-6.4-31.7-22.1-35.1-41.2L7.3,215.6c-3.6-20.2,4.8-41,21.6-53
				c27.3-21.3,89.9-22.9,108.4-22.9l2,0l1.3,0c1,0,1.9,0,2.9,0l63.2-63.2c1-1,2.3-1.5,3.6-1.5c1.4,0,2.7,0.5,3.6,1.5l10.8,10.8
				c21.5,21.5,33.5,50,33.9,80.5c12.8,12.4,18.5,30.2,15.4,47.9l-9.3,51.8c9-5,19.6-7.6,30.9-7.6c8.5,0,16.3,1.3,23.2,3.8
				c6.9-4,13.4-5.4,16.6-5.8c1.5-0.2,3.1-0.3,4.6-0.3c0.9,0,1.8,0,2.7,0.1c-0.3-2-0.4-4-0.3-6c0.8-17,14.7-30.3,31.6-30.3
				c8.5,0,16.6,3.5,22.5,9.6c5.6,5.9,8.6,13.8,8.5,21.8l0.4-0.1l-0.5,9.7l38.4-8.3c0.4-0.1,0.7-0.1,1.1-0.1c1.4,0,2.7,0.6,3.7,1.6
				c0.8,0.8,1.3,1.8,1.4,2.9c2.5-0.4,5.2-0.7,7.8-0.7c13.4,0,24,4,31.6,12c8.4,8.8,12.1,21.1,11.3,37.6l-1.7,36.1l3.6,1.2
				c2.2,0.7,3.6,2.8,3.5,5.1c-0.9,19.8-17.2,35.3-37,35.3H350.8c-2.7,8.7-10.1,24.3-30.3,35.4c-13.7,7.5-29.9,11.6-45.5,11.6
				c-20.5,0-36.8-7.8-44.4-21.1c-6,6.6-13.5,11.5-21.9,14.5C191.8,432.8,167.1,437,140.6,437z"/>
		</g>
		<g>
			<g>
				<path style="&st1;" d="M210.2,77.9c0.6,0,1.1,0.2,1.6,0.6l10.8,10.8c21,21,32.7,49,33.1,78.7c0,0.1,0,0.8,0,1
					c12.5,11.6,18.4,28.9,15.4,46.1l-9.5,53.3c-0.3,1.4,0.9,2.6,2.2,2.6c0.4,0,0.8-0.1,1.1-0.3c8.6-5.1,19.1-8,30.7-8
					c8.3,0,15.8,1.3,22.5,3.8c0.3,0.1,0.5,0.1,0.8,0.1c0.4,0,0.8-0.1,1.1-0.3c6.7-3.9,13-5.2,15.8-5.6c1.4-0.2,2.8-0.3,4.2-0.3
					c1.1,0,2.2,0.1,3.3,0.2c0.1,0,0.2,0,0.3,0c1.3,0,2.4-1.2,2.2-2.6c-0.4-2-0.5-4.1-0.4-6.3c0.7-15.4,13.3-27.5,28.7-27.5
					c7.7,0,15.1,3.2,20.4,8.7c5.2,5.5,8,12.9,7.6,20.5c0,1-0.2,2-0.3,3l0.5-0.1c0,0-0.1,2.6-0.3,6.8c-0.1,1.3,1,2.3,2.2,2.3
					c0.2,0,0.3,0,0.5-0.1l39.3-8.5c0.2,0,0.3-0.1,0.5-0.1c1.2,0,2.3,1,2.2,2.3c-0.1,1.3,1,2.3,2.2,2.3c0.1,0,0.3,0,0.4,0
					c2.7-0.5,5.4-0.8,8-0.8c12.5,0,22.5,3.7,29.5,11.1c7.8,8.2,11.3,19.8,10.5,35.5c0,0-1.4,29.2-1.8,36.6c0,1,0.6,1.9,1.5,2.2
					l4.1,1.4c0.9,0.3,1.6,1.2,1.5,2.2c-0.9,18.2-15.9,32.5-34.1,32.5h-64.9h-24.3h-29c-1,0-1.8,0.6-2.1,1.6c-2.1,7-8.6,23-29.1,34.2
					c-13.7,7.5-29.4,11.2-44.1,11.2c-20.7,0-36.8-8.3-43.2-22.1c-0.2-0.5-0.4-0.9-0.6-1.4c-5.9,7.8-14.1,13.8-23.7,17.1
					c-16.4,7.2-40.8,11.4-66.9,11.4s-50.5-4.1-66.9-11.4c-17.3-6-30.1-20.9-33.3-39L10.2,215.1c-3.4-19.2,4.6-38.8,20.4-50.2
					c26.6-20.7,88.3-22.4,106.7-22.4l2,0c0,0,1.3,0,1.3,0c1,0,2.1,0,3.1,0c0,0,0,0,0,0c0.6,0,1.2-0.2,1.6-0.6l63.4-63.4
					C209.1,78.1,209.6,77.9,210.2,77.9 M210.2,72.1c-2.1,0-4.2,0.8-5.7,2.4l-62.3,62.3c-0.6,0-1.1,0-1.7,0c0,0-1.3,0-1.3,0l-1.9,0
					c-24,0-82.8,2.3-110.2,23.5C9.5,172.9,0.6,194.8,4.5,216.1l30.2,168.6c3.6,20,17.7,36.6,36.9,43.4c17.1,7.5,42.3,11.8,69.1,11.8
					s51.9-4.3,69.1-11.8c7.7-2.7,14.6-7,20.4-12.5c8.8,12.3,25,19.4,44.9,19.4c16.1,0,32.8-4.2,46.9-11.9c19.6-10.7,27.7-25.7,31-35
					h26.4h24.3h64.9c21.4,0,38.9-16.7,39.9-38c0.2-3.6-2.1-6.9-5.5-8l-1.5-0.5l1.6-33.9c0.8-17.3-3.1-30.3-12.1-39.8
					c-8.2-8.6-19.5-12.9-33.7-12.9c-1.9,0-3.8,0.1-5.8,0.4c-0.3-0.6-0.7-1.2-1.2-1.7c-1.5-1.6-3.6-2.5-5.8-2.5
					c-0.6,0-1.1,0.1-1.7,0.2l-34.7,7.5l0.1-2.1l0.4-7.6l-0.7,0.1c-0.7-7.5-3.9-14.7-9.1-20.3c-6.4-6.7-15.3-10.5-24.6-10.5
					c-18.5,0-33.6,14.5-34.5,33.1c0,1-0.1,2.1,0,3.1c-1.5,0-3.1,0.2-4.6,0.4c-3.3,0.5-9.6,1.8-16.4,5.5c-6.9-2.4-14.6-3.6-22.9-3.6
					c-9.6,0-18.8,1.8-27,5.4l8.3-46.1c3.3-18.2-2.5-36.5-15.4-49.6c-0.7-30.7-13-59.6-34.7-81.3l-10.8-10.8
					C214.4,72.9,212.3,72.1,210.2,72.1L210.2,72.1z"/>
			</g>
		</g>
	</g>
	<g>
		<path style="&st0;" d="M236.1,183.2c-13.6-10.1-51.2-17.4-95.5-17.4c-0.5,0-0.9,0-1.4,0c-0.7,0-1.3,0-2,0
			c-43.3,0-80,7.4-92.7,17.7c-8.5,5.9-13.4,16.3-11.4,27.4l30.2,168.6c1.8,10.3,9.3,18.4,18.9,21.4c12.8,5.9,34.2,9.8,58.5,9.8
			s45.6-3.9,58.5-9.8c9.6-3,17-11.1,18.9-21.4L248.1,211C250.1,199.7,244.9,189,236.1,183.2z"/>
		<path style="&st2;" d="M140.6,416.6c-23.9,0-46.5-3.8-60.6-10.2c-11.7-3.8-20.3-13.6-22.5-25.8L27.4,212
			c-2.3-12.7,3.1-25.7,13.7-33.1c14.4-11.5,52.1-18.9,96.2-18.9l2,0l1.3,0c44.9,0,83.6,7.2,98.8,18.4c11.1,7.3,16.7,20.5,14.4,33.6
			l-30.2,168.6c-2.2,12.1-10.8,22-22.5,25.8C187.1,412.8,164.5,416.6,140.6,416.6z M137.3,171.7c-47.3,0-79.3,8.5-89.1,16.4
			c-0.1,0.1-0.2,0.2-0.4,0.3c-7,4.8-10.5,13.3-9,21.6L69,378.6c1.4,8,7.1,14.4,14.9,16.8c0.2,0.1,0.5,0.2,0.7,0.3
			c12.6,5.8,33.5,9.3,56,9.3s43.5-3.5,56-9.3c0.2-0.1,0.5-0.2,0.7-0.3c7.7-2.4,13.4-8.9,14.9-16.8L242.4,210
			c1.5-8.5-2.2-17.1-9.4-21.9c-0.1-0.1-0.2-0.1-0.3-0.2c-10.5-7.8-43.8-16.2-92-16.2l-1.3,0L137.3,171.7z"/>
	</g>
	<g>
		<path style="&st3;" d="M233.3,208c-13.4-9.6-50.5-16.5-94.2-16.5c-0.5,0-0.9,0-1.3,0c-0.6,0-1.3,0-1.9,0
			c-42.7,0-78.9,7.1-91.5,16.9c-8.4,5.6-13.2,15.6-11.3,26.1l29.7,146.7c1.8,9.8,9.2,17.5,18.6,20.3c12.6,5.6,33.8,9.3,57.7,9.3
			s45-3.7,57.7-9.3c9.4-2.8,16.8-10.5,18.6-20.3l29.7-146.7C247.1,223.7,242,213.5,233.3,208z"/>
	</g>
	<g>
		<g>
			<path style="&st4;" d="M206.1,105.8c35.1,35.1,35.1,91.9,0,126.9s-91.9,35.1-126.9,0L206.1,105.8z"/>
		</g>
		<g>
			<g>
				<line style="&st5;" x1="142.6" y1="259" x2="146.7" y2="174.1"/>
				<path style="&st6;" d="M142.6,264.8c-0.1,0-0.2,0-0.3,0c-3.2-0.2-5.7-2.9-5.5-6.1l4.1-84.9c0.2-3.2,2.9-5.7,6.1-5.5
					c3.2,0.2,5.7,2.9,5.5,6.1l-4.1,84.9C148.3,262.4,145.7,264.8,142.6,264.8z"/>
			</g>
			<g>
				<line style="&st5;" x1="146.7" y1="174.1" x2="232.4" y2="169.6"/>
				<path style="&st6;" d="M146.7,179.9c-3.1,0-5.6-2.4-5.8-5.5c-0.2-3.2,2.3-6,5.5-6.1l85.6-4.5c3.2-0.2,5.9,2.3,6.1,5.5
					c0.2,3.2-2.3,5.9-5.5,6.1l-85.6,4.5C146.9,179.9,146.8,179.9,146.7,179.9z"/>
			</g>
			<g>
				<line style="&st5;" x1="205.4" y1="232.7" x2="146.7" y2="174.1"/>
				<path style="&st6;" d="M205.4,238.6c-1.5,0-3-0.6-4.1-1.7l-58.7-58.7c-2.3-2.3-2.3-6,0-8.2c2.3-2.3,6-2.3,8.2,0l58.7,58.7
					c2.3,2.3,2.3,6,0,8.2C208.4,238,206.9,238.6,205.4,238.6z"/>
			</g>
		</g>
		<g>
			<path style="&st7;" d="M142.6,264.8c-24.5,0-49-9.3-67.6-28l8.2-8.2c16.4,16.4,37.9,24.5,59.4,24.5c21.5,0,43-8.2,59.4-24.5
				c32.7-32.7,32.7-86,0-118.7l8.2-8.2c37.3,37.3,37.3,97.9,0,135.2C191.6,255.5,167.1,264.8,142.6,264.8z"/>
		</g>
	</g>
	<g>
		<path style="&st3;" d="M232.2,208c-13.2-9.6-49.8-16.5-93-16.5c-0.4,0-0.9,0-1.3,0c-0.6,0-1.3,0-1.9,0c-42.2,0-77.9,7.1-90.3,16.9
			c-8.2,5.6-13,15.6-11.1,26.1L64,381.1c1.8,9.8,9,17.5,18.4,20.3c12.5,5.6,33.3,9.3,56.9,9.3s44.4-3.7,56.9-9.3
			c9.3-2.8,16.6-10.5,18.4-20.3l29.4-146.7C245.8,223.7,240.8,213.5,232.2,208z"/>
	</g>
	<g>
		<g>
			<path style="&st0;" d="M159,361.4c0.1,5.4,1.2,11.4,0.2,17.2c-1.5,2.8-4.3,3.1-6.7,4.2c-3.4-0.5-6.3-2.8-7.7-6
				c-0.9-6.5,0.2-12.7,0.5-19.2c0-0.2,4.1,0.1,7.7,1.2C156.1,359.7,159,361.3,159,361.4L159,361.4z M128.8,361.9
				c-3,11.3,4,29.8,15.4,14.6c-0.9-6.4,0.1-12.6,0.4-18.9C144.7,357.1,128.9,361.1,128.8,361.9L128.8,361.9z"/>
		</g>
		<g>
			<path d="M160.3,366.5c-0.2-3.2-0.3-4.5-0.3-6.1v-0.7l-0.7-0.2l-13.5-4.2v-0.7l-1.4,0.3h-0.1v0.1l-15.2,3.8l-0.5,0.1l-0.2,0.5
				c-2.3,5.7-1.8,14.2,1.2,19.4c3.4,6,9,6.1,14.6-0.7c1.6,3.1,4.6,5.2,8,5.8h0.3l0.3-0.1c0.4-0.2,0.9-0.3,1.6-0.6
				c0.1,0,0.1,0,0.2-0.1c3.1-1.1,4.4-1.9,5.4-3.9l0.1-0.1v-0.2c0.3-1.9,0.4-4,0.4-6.2C160.6,370.9,160.5,369.4,160.3,366.5
				L160.3,366.5z M143.2,362.5c-0.1,1.9-0.2,2.7-0.3,3.7c-0.2,4-0.2,6.9,0.1,9.9c-5,6.4-9,6.4-11.6,1.6c-2.6-4.5-3.1-12.1-1.2-17.1
				l13.4-3.4C143.5,358.7,143.4,360,143.2,362.5z M158.2,378.3c-0.7,1.3-1.7,1.9-4.3,2.8c-0.1,0-0.1,0-0.2,0.1
				c-0.6,0.2-1.1,0.4-1.4,0.5c-2.9-0.5-5.3-2.5-6.5-5.1c-0.3-2.9-0.3-5.9-0.1-9.8c0.1-1.1,0.1-1.8,0.3-3.7c0.2-2.5,0.3-3.9,0.3-5.3
				l11.6,3.5c0,1.4,0.1,2.7,0.3,5.4c0.2,2.9,0.3,4.4,0.3,6.1C158.6,374.8,158.5,376.6,158.2,378.3z"/>
		</g>
		<g>
			<path style="&st0;" d="M64.6,314.9c9.8,38.2,71,28.4,68.6-9.9C130.4,259.1,55.2,268,64.6,314.9"/>
		</g>
		<g>
			<path d="M134.3,304.9c-0.6-11.1-5.6-19.7-13.7-25.2c-7.3-4.9-16.9-6.8-26.4-5.7c-9.5,1.3-18.3,5.6-24,12.3
				c-6.4,7.5-8.9,17.3-6.6,28.6l1-0.2l-1,0.2C73.6,354.2,136.6,344.7,134.3,304.9z M65.5,314.7c-2.1-10.8,0.2-20,6.2-26.9
				c5.4-6.3,13.7-10.5,22.7-11.6c9.1-1.2,18.1,0.6,25,5.3c7.6,5.1,12.2,13.1,12.8,23.7C134.5,342.5,75,351.4,65.5,314.7L65.5,314.7z
				"/>
		</g>
		<g>
			<ellipse cx="104.5" cy="291.3" rx="10.4" ry="11.2"/>
		</g>
		<g>
			<ellipse style="&st0;" cx="106.3" cy="285.4" rx="2.5" ry="2.9"/>
		</g>
		<g>
			<path style="&st0;" d="M150.3,307.8c7.6,43.9,79.3,32.2,69-12C210,256.1,147.8,267.1,150.3,307.8"/>
		</g>
		<g>
			<path d="M220.3,295.6c-9.5-40.9-73.5-29.7-71,12.3v0.1c3.5,20.7,22,31.3,42.4,27.9c9.3-1.6,17.6-6.1,23.1-12.7
				C220.7,315.8,222.8,306.3,220.3,295.6L220.3,295.6z M213.1,321.9c-5.1,6.2-12.9,10.5-21.8,12c-19.3,3.2-36.6-6.7-40-26.2
				c-2.3-39.5,58.1-50.1,67-11.6C220.7,306.2,218.8,315,213.1,321.9z"/>
		</g>
		<g>
			<ellipse cx="191" cy="288.6" rx="10.1" ry="11.2"/>
		</g>
		<g>
			<ellipse style="&st0;" cx="192.8" cy="282.6" rx="2.3" ry="2.9"/>
		</g>
		<g>
			<g>
				<path style="&st8;" d="M131,338.8c-8.4,0.7-15.3,10.7-10.9,18.6c5.8,10.5,18.7-1,26.7,0.1c9.3,0.2,16.9,9.8,24.2,1.7
					c8.2-9-3.5-17.7-12.8-21.6L131,338.8L131,338.8z"/>
			</g>
			<g>
				<path style="&st9;" d="M172.1,346c-2.9-3.6-7.9-6.9-13.3-9.2l-0.2-0.1h-0.2l-27.3,1.1c-9.5,0.9-16.3,11.8-11.7,20.2
					c1.8,3.2,4.3,4.8,7.6,5c2.5,0.1,5-0.4,9-1.8c0.3-0.1,0.7-0.2,1.3-0.4c5.3-1.8,7.5-2.3,9.6-2h0.1c2.6,0,4.7,0.7,8.8,2.3
					c4.5,1.8,5.9,2.3,8.1,2.6c3.1,0.2,5.8-0.9,8.2-3.5C176.1,355.5,175.9,350.5,172.1,346L172.1,346z M170.3,358.5
					c-2,2.2-4.1,3-6.5,2.9c-1.9-0.1-3.2-0.6-7.5-2.3c-4.3-1.8-6.6-2.5-9.4-2.6c-2.7-0.3-4.9,0.2-10.6,2.1c-0.5,0.2-1,0.3-1.3,0.4
					c-7.8,2.7-11.5,2.5-14.1-2.2c-3.8-6.9,2-16.3,10-17.1l27-1.1c5.1,2.1,9.7,5.2,12.4,8.5C173.6,351.1,173.7,354.9,170.3,358.5
					L170.3,358.5z"/>
			</g>
			<g>
				<path d="M160.4,334.2c-3.3-12.2-31.1-10.4-30.4,4.2C131.3,349.2,163.6,346.3,160.4,334.2z"/>
			</g>
		</g>
	</g>
	<g>
		<path style="&st2;" d="M140.6,416.6c-23.9,0-46.5-3.8-60.6-10.2c-11.7-3.8-20.3-13.6-22.5-25.8L27.4,212c-0.6-3.2,1.5-6.2,4.7-6.8
			c3.2-0.6,6.2,1.5,6.8,4.7L69,378.6c1.4,8,7.1,14.4,14.9,16.8c0.2,0.1,0.5,0.2,0.7,0.3c12.6,5.8,33.5,9.3,56,9.3s43.5-3.5,56-9.3
			c0.2-0.1,0.5-0.2,0.7-0.3c7.7-2.4,13.4-8.9,14.9-16.8L242.4,210c0.6-3.2,3.6-5.3,6.8-4.7c3.2,0.6,5.3,3.6,4.7,6.8l-30.2,168.6
			c-2.2,12.1-10.8,22-22.5,25.8C187.1,412.8,164.5,416.6,140.6,416.6z"/>
	</g>
	<g style="&st10;">
		<path style="&st3;" d="M139.2,191.5c-56.9,0-90.8,11.4-98.9,21.3c0,0.3-0.1,0.5-0.1,0.8c0,14.8,44.7,30.8,100.1,30.8
			c51.9,0,94.9-14.6,100.1-28C236.3,206.4,198.7,191.5,139.2,191.5z"/>
	</g>
	<g>
		<g>
			<path style="&st1;" d="M332.6,293.2c-1.5-2-2.2-4.4-1.5-6.7c0.3-1.5-4.9-0.5-8.2,3.6c4.1,4.5,6.2,10.9,5.9,17.4
				c-0.7,14.7-14.2,27.6-36,27.6c-7.1,0-12.5-0.9-16.9-2.9c-6.6,1.8-17.6,18.7,2.7,18.7h23.6c12.5,0,33.9,0.4,29.4,25.9
				c0,0-1.4,14.7-21,25.4c-25.7,14-56.5,11.8-63-2.5c-5.9-12.7,4.4-26.7,15.9-32.5c-5-2.4-8.4-7.3-8-14.5c0,0,0.2-16,17.7-21.8
				c-9.1-4-13.9-13.8-13.4-23.4c0.7-14.7,14.2-27.4,35.6-27.4c11.4,0,20,3.1,25.6,8.2c5.2-7.3,13-9.8,17.2-10.3
				c3.3-0.5,6.9,0.5,9.1,3.1c3.1,4,2.3,9.8-1.7,13.1C341.5,297.6,335.7,297,332.6,293.2z M309.4,399.9c13.4-8,12.5-19.2,12.5-19.2
				s-0.6-9.4-15-9.4h-25c-2,0-8.9,0.4-15.5-2.4c-17.6,10.3-4.9,25.6-5,25.4C270.1,405.4,292.4,409.9,309.4,399.9z M295.4,282.9
				c-9.1,0-16,4.4-17,24.7c-1,20.3,6.6,24.9,14.6,24.9c8.3,0,16.4-4.5,17.3-24.9C311.3,287.2,303.2,282.9,295.4,282.9z"/>
		</g>
		<g>
			<path style="&st1;" d="M387,363.6h-33.8l0.1-2.7c7-2.2,7.6-7.4,8.1-16.7l2.2-45.4c0.3-6.2-1.4-8.7-8.7-11.8l0.1-2.7l28.6-6.2
				l-3.2,66.1c-0.5,10,0.2,14.9,6.6,16.7L387,363.6z M362.7,252.6c0.3-6,5.2-10.9,11.2-10.9c6,0,10.8,4.9,10.5,10.9
				c-0.3,6-5.6,10.7-11.6,10.7C366.9,263.3,362.4,258.6,362.7,252.6z"/>
		</g>
		<g>
			<path style="&st1;" d="M484.4,363.6h-33.9l0.1-2.7c7-2,7.6-7.4,8.1-16.7l1.8-37.2c0.5-10.5-5.3-17.8-15.8-17.8
				c-8.2,0-16.7,8.3-17.8,15.2l-1.9,39.9c-0.5,10,0.4,14.7,6.6,16.5l-0.1,2.7h-33.8l0.1-2.7c7-2,7.4-7.3,7.9-16.5l2.2-45.7
				c0.3-6.4-1.2-8.5-8.5-11.6l0.1-2.7l28.6-6.2l-0.9,19.2c4.5-10.9,18.5-19.2,30-19.2c14.3,0,23.6,6.4,22.6,28.3l-1.8,37.7
				c-0.5,10,0.2,15.1,6.6,16.7L484.4,363.6z"/>
		</g>
	</g>
	<g>
		<path style="&st2;" d="M140.6,223c-51.4,0-106.8-9.9-106.8-31.5c0-3.2,2.6-5.8,5.8-5.8s5.8,2.6,5.8,5.8c0,5.9,32.4,19.8,95.1,19.8
			s95.1-13.9,95.1-19.8c0-3.2,2.6-5.8,5.8-5.8c3.2,0,5.8,2.6,5.8,5.8C247.4,213.1,192,223,140.6,223z"/>
	</g>
</g>
</svg>
