<?xml version="1.0" encoding="utf-8"?>
<!-- Generator: Adobe Illustrator 18.0.0, SVG Export Plug-In . SVG Version: 6.00 Build 0)  -->
<!DOCTYPE svg PUBLIC "-//W3C//DTD SVG 1.1//EN" "http://www.w3.org/Graphics/SVG/1.1/DTD/svg11.dtd" [
	<!ENTITY st0 "fill:#FFFFFF;">
	<!ENTITY st1 "fill:#4D4D4D;">
	<!ENTITY st2 "fill:#0090D1;">
	<!ENTITY st3 "fill:#69D7E2;">
	<!ENTITY st4 "fill:#FFCC00;">
	<!ENTITY st5 "fill:none;">
	<!ENTITY st6 "fill:#FFFF99;">
	<!ENTITY st7 "fill:#99CC33;">
	<!ENTITY st8 "fill:#F6D2A2;">
	<!ENTITY st9 "fill:#231F20;">
	<!ENTITY st10 "opacity:0.5;">
	<!ENTITY st11 "fill:#FFFFFF;stroke:#0090D1;stroke-width:8;stroke-linecap:round;stroke-linejoin:round;stroke-miterlimit:10;">
	<!ENTITY st12 "fill:#FFCC00;stroke:#FFFF99;stroke-width:8;stroke-linecap:round;stroke-linejoin:round;stroke-miterlimit:10;">
	<!ENTITY st13 "fill:none;stroke:#99CC33;stroke-width:8;stroke-linejoin:round;stroke-miterlimit:10;">
	<!ENTITY st14 "fill:none;stroke:#0090D1;stroke-width:8;stroke-linecap:round;stroke-linejoin:round;stroke-miterlimit:10;">
	<!ENTITY st15 "opacity:0.5;fill:#69D7E2;">
	<!ENTITY st16 "fill:#FFFFFF;stroke:#4D4D4D;stroke-width:4;stroke-miterlimit:10;">
]>
<svg version="1.1" id="Layer_2" xmlns="http://www.w3.org/2000/svg" xmlns:xlink="http://www.w3.org/1999/xlink" x="0px" y="0px"
	 viewBox="0 0 2172.4 1589.4" style="enable-background:new 0 0 2172.4 1589.4;" xml:space="preserve">
<g>
	<g>
		<g>
			<path style="&st0;" d="M591.9,1570.1c-113.3,0-219.5-18.1-291.3-49.6c-78.2-27.3-135.8-94.9-150.4-176.4L20.9,621.7
				C5.5,535,41.7,445.9,113.3,394.5c116.9-91.1,385-98.1,464.3-98.1l8.5,0l5.5,0c4.1,0,8.2,0,12.3,0L874.4,25.8
				c4.1-4.1,9.7-6.4,15.5-6.4c5.9,0,11.4,2.3,15.5,6.4L951.7,72c92,92,143.6,214.4,145.2,344.7c54.8,53.3,79.4,129.5,65.9,205
				l-39.7,221.8c38.4-21.3,84-32.6,132.4-32.6c36.2,0,69.7,5.5,99.4,16.5c29.8-17.2,57.3-23,71.2-24.9c6.4-1,13.1-1.5,19.8-1.5
				c3.8,0,7.7,0.2,11.6,0.5c-1.2-8.5-1.6-17.1-1.2-25.7c3.5-72.8,62.9-129.8,135.3-129.8c36.2,0,71.3,15,96.2,41.1
				c23.9,25.1,37,59,36.3,93.5l1.6-0.4l-2,41.6l164.5-35.6c1.5-0.3,3.1-0.5,4.7-0.5c6,0,11.8,2.5,15.9,6.8c3.3,3.5,5.4,7.8,5.9,12.5
				c10.9-1.9,22.2-2.9,33.2-2.9c57.3,0,102.9,17.3,135.5,51.6c36,37.8,51.9,90.5,48.5,161.2l-7.4,154.7l15.6,5.1
				c9.3,3.1,15.5,12.1,15.1,21.9c-4,84.7-73.6,151.1-158.4,151.1h-504.2c-11.4,37.2-43.3,104.3-129.9,151.6
				c-58.8,31.9-128,49.5-195,49.5c-87.8,0-157.8-33.6-190.3-90.6c-25.6,28.1-57.8,49.4-94,62C811.3,1552,705.2,1570.1,591.9,1570.1z
				"/>
		</g>
		<g>
			<g>
				<path style="&st1;" d="M890,31.8c2.4,0,4.9,0.9,6.7,2.8l46.2,46.2c90.1,90.1,140.3,209.7,141.6,337.2c0,0.6,0.2,3.3,0.2,4.2
					c53.5,49.8,79,123.8,65.9,197.3l-40.8,228.2c-1.1,6.2,3.8,11.2,9.3,11.2c1.6,0,3.2-0.4,4.8-1.3c36.6-21.7,81.7-34.1,131.7-34.1
					c35.4,0,67.8,5.5,96.3,16.2c1.1,0.4,2.2,0.6,3.3,0.6c1.7,0,3.4-0.5,4.9-1.3c28.8-16.9,55.8-22.3,67.8-24c6-0.9,12-1.4,18.1-1.4
					c4.7,0,9.4,0.3,14,0.9c0.4,0,0.8,0.1,1.1,0.1c5.7,0,10.3-5.3,9.3-11.2c-1.5-8.7-2.1-17.7-1.7-26.8
					c3.2-66.1,57.1-117.9,122.8-117.9c32.8,0,64.6,13.6,87.2,37.3c22.4,23.4,34.3,55.4,32.7,87.8c-0.2,4.3-0.6,8.6-1.3,12.8l2.3-0.5
					c0,0-0.5,10.9-1.4,29.1c-0.3,5.6,4.2,10,9.5,10c0.7,0,1.3-0.1,2-0.2l168.2-36.3c0.7-0.1,1.4-0.2,2-0.2c5.3,0,9.7,4.4,9.5,10
					c-0.3,5.5,4.1,9.9,9.4,9.9c0.6,0,1.2-0.1,1.7-0.2c11.5-2.1,23-3.3,34.4-3.3c53.8,0,96.3,16,126.5,47.7
					c33.5,35.2,48.3,84.9,45.1,152c0,0-6,125.2-7.5,156.9c-0.2,4.3,2.5,8.1,6.5,9.5l17.8,5.8c4.1,1.3,6.7,5.2,6.5,9.5
					c-3.7,77.9-67.9,139.2-145.9,139.2h-278.1h-104h-124.4c-4.2,0-7.9,2.7-9.1,6.7c-8.8,29.9-36.9,98.5-124.6,146.4
					c-58.8,32-125.9,48-189,48c-88.6,0-157.7-35.5-185-94.9c-0.9-2-1.7-4-2.5-6.1c-25.4,33.3-60.4,59.1-101.4,73.3
					c-70.4,31-174.6,48.8-286.8,48.8s-216.4-17.7-286.8-48.8c-74.3-25.7-128.8-89.4-142.7-167L33.2,619.5
					c-14.7-82.1,19.6-166.2,87.3-214.9c114.1-88.9,378.4-95.8,457.1-95.8l8.4,0c0,0,5.5,0,5.5,0c4.5,0,8.9,0,13.4,0.1c0,0,0,0,0.1,0
					c2.5,0,4.9-1,6.7-2.8L883.3,34.6C885.1,32.7,887.5,31.8,890,31.8 M890,6.9c-9.2,0-17.8,3.6-24.3,10.1L598.7,283.9
					c-2.4,0-4.8,0-7.1,0c0,0-5.7,0-5.7,0l-8.2,0c-103,0-354.8,9.8-472.1,100.8C30.4,438.8-7.6,532.7,8.7,623.9l129.2,722.4
					c15.4,85.9,75.9,157,158.1,185.9c73.4,32.1,181.1,50.5,295.9,50.5s222.5-18.4,295.9-50.5c32.9-11.5,62.5-29.8,87.4-53.7
					c37.5,52.5,107.1,83.1,192.4,83.1c69,0,140.4-18.1,200.9-51c84-46,118.8-109.9,133-150.1h113.2h104h278.1
					c91.5,0,166.5-71.6,170.8-163c0.7-15.4-9-29.5-23.6-34.3l-6.6-2.2l7-145.2c3.6-74.3-13.4-130-51.9-170.4
					c-35.1-36.8-83.7-55.4-144.5-55.4c-8.2,0-16.5,0.5-24.8,1.5c-1.4-2.6-3.2-5.1-5.3-7.3c-6.5-6.8-15.6-10.7-24.9-10.7
					c-2.4,0-4.9,0.3-7.3,0.8l-148.6,32.1l0.4-9.1l1.6-32.4l-2.9,0.6c-2.9-32.3-16.6-63.1-39.2-86.8c-27.3-28.6-65.6-45-105.2-45
					c-79,0-143.9,62.2-147.7,141.6c-0.2,4.4-0.2,8.9,0,13.3c-6.5,0.1-13.1,0.6-19.5,1.6c-14,2-40.9,7.6-70.4,23.6
					c-29.7-10.2-62.7-15.3-98.2-15.3c-41.3,0-80.7,7.9-115.7,23l35.3-197.6c13.9-77.9-10.6-156.5-65.8-212.5
					c-3-131.7-55.7-255.1-148.8-348.2L914.3,17C907.8,10.5,899.2,6.9,890,6.9L890,6.9z"/>
			</g>
		</g>
	</g>
	<g>
		<path style="&st0;" d="M1001,482.9c-58.1-43.3-219.3-74.4-409.1-74.4c-2,0-3.9,0-5.8,0c-2.8,0-5.6,0-8.4,0
			c-185.6,0-342.9,31.9-397.3,75.9c-36.3,25.1-57.4,70-48.9,117.4l129.2,722.4c7.9,44.1,39.8,78.8,80.8,91.5
			c54.9,25.4,146.6,42.1,250.5,42.1s195.6-16.7,250.5-42.1c41-12.7,72.9-47.4,80.8-91.5l129.2-722.4
			C1061,553.5,1038.8,507.7,1001,482.9z"/>
		<path style="&st2;" d="M591.9,1482.8c-102.5,0-199.3-16.3-259.5-43.7c-50.2-16.2-87-58.4-96.3-110.4L106.9,606.3
			c-9.7-54.4,13.2-110,58.5-141.8c61.6-49.2,223.2-80.9,412.2-80.9l8.5,0l5.7,0c192.3,0,358.3,30.9,423.4,78.9
			c47.4,31.5,71.6,87.8,61.6,143.8l-129.2,722.4c-9.3,52-46.1,94.2-96.3,110.4C791.2,1466.5,694.4,1482.8,591.9,1482.8z
			 M577.6,433.5c-202.5,0-339.8,36.5-381.6,70.4c-0.5,0.4-1,0.8-1.5,1.1c-29.8,20.6-44.9,56.9-38.6,92.5l129.2,722.4
			c6.1,34.2,30.5,61.8,63.6,72.1c1,0.3,2.1,0.7,3.1,1.2c53.8,24.9,143.5,39.8,240,39.8s186.2-14.9,240-39.8c1-0.5,2-0.9,3.1-1.2
			c33.1-10.3,57.5-37.9,63.6-72.1l129.2-722.4c6.5-36.5-9.3-73.3-40.4-93.7c-0.4-0.3-0.8-0.5-1.2-0.8
			c-44.9-33.5-187.5-69.4-394.3-69.4l-5.8,0L577.6,433.5z"/>
	</g>
	<g>
		<path style="&st3;" d="M989.1,589.3c-57.3-41.2-216.3-70.8-403.5-70.8c-1.9,0-3.8,0-5.8,0c-2.8,0-5.5,0-8.3,0
			c-183,0-338.2,30.3-391.8,72.3c-35.8,23.9-56.6,66.6-48.2,111.8L259,1330.7c7.8,42,39.2,75,79.6,87.1
			c54.2,24.2,144.6,40.1,247,40.1s192.9-15.9,247-40.1c40.4-12.1,71.9-45.1,79.6-87.1l127.4-628.2
			C1048.3,656.4,1026.4,612.8,989.1,589.3z"/>
	</g>
	<g>
		<g>
			<path style="&st4;" d="M872.3,151.3c150.2,150.2,150.2,393.6,0,543.8s-393.6,150.2-543.8,0L872.3,151.3z"/>
		</g>
		<g>
			<g>
				<line style="&st5;" x1="600.5" y1="807.6" x2="618.1" y2="443.8"/>
				<path style="&st6;" d="M600.5,832.6c-0.4,0-0.8,0-1.2,0c-13.8-0.7-24.4-12.4-23.7-26.1l17.6-363.9c0.7-13.8,12.3-24.3,26.1-23.7
					c13.8,0.7,24.4,12.4,23.7,26.1l-17.6,363.9C624.7,822.2,613.7,832.6,600.5,832.6z"/>
			</g>
			<g>
				<line style="&st5;" x1="618.1" y1="443.8" x2="984.9" y2="424.7"/>
				<path style="&st6;" d="M618.1,468.7c-13.2,0-24.2-10.3-24.9-23.6c-0.7-13.8,9.9-25.5,23.6-26.2l366.8-19.1
					c13.8-0.8,25.5,9.9,26.2,23.6c0.7,13.8-9.9,25.5-23.6,26.2l-366.8,19.1C618.9,468.7,618.5,468.7,618.1,468.7z"/>
			</g>
			<g>
				<line style="&st5;" x1="869.4" y1="695.1" x2="618.1" y2="443.8"/>
				<path style="&st6;" d="M869.4,720c-6.4,0-12.8-2.4-17.6-7.3L600.5,461.4c-9.7-9.7-9.7-25.5,0-35.3c9.7-9.7,25.5-9.7,35.3,0
					L887,677.4c9.7,9.7,9.7,25.5,0,35.3C882.2,717.6,875.8,720,869.4,720z"/>
			</g>
		</g>
		<g>
			<path style="&st7;" d="M600.5,832.4c-104.8,0-209.7-39.9-289.5-119.7l35.3-35.3c70.1,70.1,162.2,105.1,254.2,105.1
				c92.1,0,184.1-35,254.2-105.1c140.2-140.2,140.2-368.3,0-508.5l35.3-35.3c159.6,159.6,159.6,419.4,0,579
				C810.2,792.5,705.3,832.4,600.5,832.4z"/>
		</g>
	</g>
	<g>
		<path style="&st3;" d="M984.3,589.3c-56.6-41.2-213.5-70.8-398.3-70.8c-1.9,0-3.8,0-5.7,0c-2.7,0-5.5,0-8.2,0
			c-180.7,0-333.8,30.3-386.7,72.3c-35.3,23.9-55.9,66.6-47.6,111.8l125.8,628.2c7.7,42,38.7,75,78.6,87.1
			c53.5,24.2,142.7,40.1,243.8,40.1s190.4-15.9,243.8-40.1c39.9-12.1,70.9-45.1,78.6-87.1l125.8-628.2
			C1042.7,656.4,1021,612.8,984.3,589.3z"/>
	</g>
	<g>
		<g>
			<path style="&st0;" d="M670.8,1246.4c0.5,23.3,5,48.9,0.9,73.6c-6.4,11.9-18.3,13.3-28.8,17.8c-14.6-2.3-27-11.9-32.9-25.6
				c-3.7-27.9,0.9-54.4,2.3-82.3c0-0.9,17.4,0.5,32.9,5C658.5,1239.1,670.8,1245.9,670.8,1246.4L670.8,1246.4z M541.4,1248.2
				c-12.8,48.5,16.9,127.6,65.8,62.6c-3.7-27.4,0.5-54,1.8-80.9C609.5,1227.6,541.9,1245,541.4,1248.2L541.4,1248.2z"/>
		</g>
		<g>
			<path d="M676.3,1267.9c-0.9-13.7-1.4-19.2-1.4-26.1v-3.2l-3.2-0.9l-57.6-17.8v-3.2l-5.9,1.4h-0.5v0.5l-64.9,16.5l-2.3,0.5
				l-0.9,2.3c-10.1,24.2-7.8,60.8,5,83.2c14.6,25.6,38.4,26.1,62.6-3.2c6.8,13.2,19.6,22.4,34.3,24.7h1.4l1.4-0.5
				c1.8-0.9,3.7-1.4,6.9-2.7c0.5,0,0.5,0,0.9-0.5c13.3-4.6,18.7-8.2,23.3-16.9l0.5-0.5v-0.9c1.4-8.2,1.8-16.9,1.8-26.5
				C677.7,1287.1,677.2,1280.7,676.3,1267.9L676.3,1267.9z M603.1,1250.9c-0.5,8.2-0.9,11.4-1.4,16c-0.9,16.9-0.9,29.7,0.5,42.5
				c-21.5,27.4-38.4,27.4-49.8,6.9c-11-19.2-13.3-51.7-5-73.2l57.6-14.6C604.5,1234.5,604,1240.4,603.1,1250.9z M667.2,1318.6
				c-3.2,5.5-7.3,8.2-18.3,11.9c-0.5,0-0.5,0-0.9,0.5c-2.7,0.9-4.6,1.8-5.9,2.3c-12.3-2.3-22.9-10.5-27.9-21.9
				c-1.4-12.3-1.4-25.2-0.5-42.1c0.5-4.6,0.5-7.8,1.4-16c0.9-10.5,1.4-16.9,1.4-22.9l49.8,15.1c0,5.9,0.5,11.4,1.4,23.3
				c0.9,12.3,1.4,18.7,1.4,26.1C669,1303.5,668.5,1311.3,667.2,1318.6z"/>
		</g>
		<g>
			<path style="&st0;" d="M266.1,1047.1c42.1,163.7,304.1,121.6,294-42.5C548.3,808,225.9,845.9,266.1,1047.1"/>
		</g>
		<g>
			<path d="M564.7,1004.2c-2.7-47.6-23.8-84.6-58.5-107.9c-31.1-21-72.3-29.3-112.9-24.2c-40.7,5.5-78.2,23.8-102.9,52.6
				c-27.4,32-38,74.1-28.3,122.5l4.1-0.9l-4.1,0.9C305,1215.4,574.8,1174.7,564.7,1004.2z M270.2,1046.2
				c-9.1-46.2,0.9-85.5,26.5-115.2c23.3-27,58.5-44.8,97.4-49.8s77.7,2.7,107,22.9c32.5,22,52.1,56.2,54.9,101.5
				C565.7,1165.1,310.9,1203.5,270.2,1046.2L270.2,1046.2z"/>
		</g>
		<g>
			<ellipse cx="437" cy="946.1" rx="44.4" ry="48"/>
		</g>
		<g>
			<ellipse style="&st0;" cx="445" cy="920.6" rx="10.5" ry="12.3"/>
		</g>
		<g>
			<path style="&st0;" d="M633.6,1016.5c32.5,187.9,339.8,138.1,295.4-51.2C889.2,795.2,622.6,842.3,633.6,1016.5"/>
		</g>
		<g>
			<path d="M933.1,964.4C892.4,789.3,618.1,837.3,629,1017v0.5c15.1,88.7,94.2,134,181.5,119.3c39.8-6.9,75.4-26.1,98.8-54.4
				C934.9,1050.8,944.1,1010.1,933.1,964.4L933.1,964.4z M902.5,1076.9c-22,26.5-55.3,44.8-93.3,51.2
				c-82.8,13.7-156.9-28.8-171.5-112c-10.1-169.2,248.8-214.5,287.2-49.8C935,1009.7,926.7,1047.6,902.5,1076.9z"/>
		</g>
		<g>
			<ellipse cx="807.7" cy="934.3" rx="43.4" ry="48"/>
		</g>
		<g>
			<ellipse style="&st0;" cx="815.6" cy="908.7" rx="10.1" ry="12.3"/>
		</g>
		<g>
			<g>
				<path style="&st8;" d="M550.8,1149.4c-36.1,3.2-65.4,45.7-46.6,79.6c24.7,44.8,80-4.1,114.3,0.5c39.8,0.9,72.3,42.1,103.8,7.3
					c35.2-38.4-15.1-75.9-54.9-92.4L550.8,1149.4L550.8,1149.4z"/>
			</g>
			<g>
				<path style="&st9;" d="M726.9,1180c-12.3-15.5-33.8-29.7-57.2-39.3l-0.9-0.5h-0.9l-117.1,4.6c-40.7,3.7-70,50.8-50.3,86.4
					c7.8,13.7,18.3,20.6,32.5,21.5c10.5,0.5,21.5-1.8,38.4-7.8c1.4-0.5,3.2-0.9,5.5-1.8c22.9-7.8,32-10.1,41.2-8.7h0.5
					c11,0,20.1,3.2,37.5,10.1c19.2,7.8,25.2,10.1,34.8,11c13.3,0.9,24.7-3.7,35.2-15.1C743.8,1220.7,742.9,1199.7,726.9,1180
					L726.9,1180z M719.1,1234c-8.7,9.6-17.4,12.8-27.9,12.3c-8.2-0.5-13.7-2.7-32-10.1c-18.3-7.8-28.3-10.5-40.2-11
					c-11.4-1.4-21,0.9-45.3,9.1c-2.3,0.9-4.1,1.4-5.5,1.8c-33.4,11.4-49.4,10.5-60.4-9.6c-16.5-29.7,8.7-70,43-73.2l115.7-4.6
					c22,9.1,41.6,22.4,53,36.6C733.3,1202,733.8,1218.5,719.1,1234L719.1,1234z"/>
			</g>
			<g>
				<path d="M676.6,1129.7c-14.2-52.1-133.1-44.4-130.3,17.8C552.2,1193.8,690.3,1181.4,676.6,1129.7z"/>
			</g>
		</g>
	</g>
	<g>
		<path style="&st2;" d="M591.9,1482.8c-102.5,0-199.3-16.3-259.5-43.7c-50.2-16.2-87-58.4-96.3-110.4L106.9,606.3
			c-2.4-13.6,6.6-26.5,20.2-28.9c13.5-2.5,26.5,6.6,28.9,20.2l129.2,722.4c6.1,34.2,30.5,61.8,63.6,72.1c1,0.3,2.1,0.7,3.1,1.2
			c53.8,24.9,143.5,39.8,240,39.8s186.2-14.9,240-39.8c1-0.5,2-0.9,3.1-1.2c33.1-10.3,57.5-37.9,63.6-72.1l129.2-722.4
			c2.4-13.6,15.4-22.6,28.9-20.2c13.6,2.4,22.6,15.4,20.2,28.9l-129.2,722.4c-9.3,52-46.1,94.2-96.3,110.4
			C791.2,1466.5,694.4,1482.8,591.9,1482.8z"/>
	</g>
	<g style="&st10;">
		<path style="&st3;" d="M586,518.5c-243.6,0-388.9,48.8-423.5,91.2c-0.1,1.1-0.3,2.2-0.3,3.3c0,63.3,191.3,132,428.7,132
			c222.3,0,406.3-62.4,428.7-120.1C1002,582.1,840.6,518.5,586,518.5z"/>
	</g>
	<g>
		<g>
			<path style="&st1;" d="M1414.5,954.2c-6.6-8.5-9.2-18.7-6.4-28.8c1.1-6.2-20.9-2.3-35,15.5c17.7,19.4,26.5,46.6,25.2,74.6
				c-3,63-60.9,118.1-154.1,118.1c-30.3,0-53.5-3.9-72.5-12.4c-28.4,7.8-75.4,80.1,11.7,80.1h101.1c53.6,0,145.3,1.6,126,111.2
				c0,0-6.1,63-90,108.8c-110.2,59.9-241.9,50.5-270-10.9c-25.4-54.4,18.7-114.3,68.1-139.1c-21.3-10.1-35.8-31.1-34.3-62.2
				c0,0,0.9-68.4,76-93.3c-38.8-17.1-59.4-59.1-57.4-100.3c3-63,60.8-117.4,152.6-117.4c49,0,85.7,13.2,109.5,35
				c22.5-31.1,55.6-42,73.6-44.3c14.1-2.3,29.4,2.3,39,13.2c13.2,17.1,9.6,42-7.3,56C1452.5,972.8,1427.7,970.5,1414.5,954.2z
				 M1314.8,1411.3c57.6-34.2,53.7-82.4,53.7-82.4s-2.7-40.4-64.1-40.4h-107.3c-8.6,0-38.2,1.6-66.4-10.1
				c-75.2,44.3-20.8,109.6-21.5,108.8C1146.6,1434.6,1242,1454,1314.8,1411.3z M1254.9,909.9c-38.9,0-68.5,18.7-72.7,105.7
				c-4.2,87.1,28.3,106.5,62.5,106.5c35.8,0,70.1-19.4,74.3-106.5C1323.2,928.5,1288.4,909.9,1254.9,909.9z"/>
		</g>
		<g>
			<path style="&st1;" d="M1647.2,1255.8h-144.6l0.6-11.7c30-9.3,32.6-31.9,34.5-71.5l9.3-194.3c1.3-26.4-6-37.3-37.2-50.5l0.6-11.7
				l122.5-26.4l-13.6,283c-2,42.8,0.8,63.7,28.4,71.5L1647.2,1255.8z M1543.3,780.1c1.2-25.7,22.4-46.6,48.1-46.6
				c25.7,0,46.4,21,45.2,46.6s-24,45.9-49.6,45.9C1561.3,825.9,1542.1,805.7,1543.3,780.1z"/>
		</g>
		<g>
			<path style="&st1;" d="M2064.7,1255.8h-145.4l0.6-11.7c29.9-8.5,32.6-31.9,34.5-71.5l7.6-159.4c2.2-45.1-22.8-76.2-67.9-76.2
				c-35,0-71.7,35.8-76.2,65.3l-8.2,171c-2.1,42.8,1.6,63,28.5,70.7l-0.6,11.7h-144.6l0.6-11.7c30-8.5,31.8-31.1,33.7-70.7
				l9.4-195.9c1.3-27.2-5.2-36.5-36.5-49.8l0.6-11.7l122.5-26.4l-4,82.4c19.3-46.6,79.4-82.4,128.3-82.4
				c61.4,0,101.3,27.2,96.8,121.3l-7.8,161.7c-2,42.8,0.8,64.5,28.4,71.5L2064.7,1255.8z"/>
		</g>
	</g>
	<g>
		<path style="&st2;" d="M591.9,653.3c-220.3,0-457.3-42.2-457.3-134.9c0-13.8,11.2-24.9,24.9-24.9c13.8,0,24.9,11.2,24.9,24.9
			c0,25.4,138.6,85,407.4,85s407.4-59.6,407.4-85c0-13.8,11.2-24.9,24.9-24.9c13.8,0,24.9,11.2,24.9,24.9
			C1049.2,611.1,812.1,653.3,591.9,653.3z"/>
	</g>
</g>
</svg>
